<?xml version="1.0" encoding="UTF-8"?>
<!DOCTYPE svg PUBLIC "-//W3C//DTD SVG 1.1//EN" "http://www.w3.org/Graphics/SVG/1.1/DTD/svg11.dtd">
<!-- Creator: CorelDRAW 2020 (64-Bit) -->
<svg xmlns="http://www.w3.org/2000/svg" xml:space="preserve" width="3.2481in" height="3.56476in" version="1.1" style="shape-rendering:geometricPrecision; text-rendering:geometricPrecision; image-rendering:optimizeQuality; fill-rule:evenodd; clip-rule:evenodd"
viewBox="0 0 670.12 735.45"
 xmlns:xlink="http://www.w3.org/1999/xlink"
 xmlns:xodm="http://www.corel.com/coreldraw/odm/2003">
 <defs>
  <style type="text/css">
   <![CDATA[
    .fil0 {fill:#5F5D5E;fill-rule:nonzero}
   ]]>
  </style>
 </defs>
 <g id="Layer_x0020_1">
  <metadata id="CorelCorpID_0Corel-Layer"/>
  <g id="radio-avaa.svg">
   <g id="XMLID_2_">
    <path id="XMLID_8_" class="fil0" d="M252.58 222.82l-0.9 0.36 0 0c-79.46,45.94 -106.48,148.1 -60.9,227.38 9.55,16.58 21.62,30.63 35.13,42.34l99.64 -57.29c0.36,0 -32.43,-3.24 -50.27,-34.05 -19.1,-32.79 -7.75,-74.95 25.4,-94.05l131.17 -75.85 65.94 -37.84 86.48 -50.09c-23.6,-26.49 -51.17,-48.29 -80.9,-65.94l-104.5 60.36 -146.3 84.68z"/>
    <path id="XMLID_5_" class="fil0" d="M166.82 656.67l104.5 -60.36 146.3 -84.14 0.9 -0.54c79.46,-45.94 107.02,-147.74 61.08,-227.38 -9.55,-16.4 -21.26,-30.63 -35.13,-42.34l-99.64 57.3c-0.36,-0.36 32.25,2.88 50.09,33.69 19.1,32.79 7.75,75.13 -25.4,94.05l-130.99 75.85 -65.94 38.38 -86.48 50.09c23.6,26.13 50.81,47.93 80.72,65.4l0 0zm265.03 -424.85l-130.99 75.85 1.26 -0.9 -0.9 0.54c0,0 0,0 -0.36,0l130.99 -75.49z"/>
    <path id="XMLID_4_" class="fil0" d="M321.77 649.11c-6.67,3.96 -9.01,12.61 -5.04,19.64l34.41 59.46c3.96,6.67 12.79,9.37 19.64,5.41l131.71 -76.21 0 -0.36c0,0 0,0 0.36,0 159.45,-92.25 214.59,-296.21 123.06,-456.02l-83.96 48.29 0 0c64.86,113.51 25.76,258.37 -87.74,323.77l0 0c-4.14,2.16 -8.11,4.5 -12.25,6.49l-92.25 53.69 -27.93 15.86z"/>
    <path id="XMLID_3_" class="fil0" d="M348.43 86.42c6.67,-3.96 9.37,-12.79 5.4,-19.64l-34.41 -59.46c-3.96,-7.03 -12.61,-9.37 -19.64,-5.41l-132.43 76.39 0.36 0.36c-0.36,0 -0.36,0 -0.36,0 -159.81,92.25 -214.59,296.2 -123.06,456.02l83.96 -48.29 0 0c-64.86,-113.51 -25.76,-258.37 87.74,-323.77l0 0c3.96,-2.16 8.11,-4.5 12.07,-6.49l92.43 -53.87 27.93 -15.86z"/>
   </g>
  </g>
 </g>
</svg>
