<?xml version="1.0" encoding="UTF-8"?>
<!DOCTYPE svg PUBLIC "-//W3C//DTD SVG 1.1//EN" "http://www.w3.org/Graphics/SVG/1.1/DTD/svg11.dtd">
<!-- Creator: CorelDRAW 2020 (64-Bit) -->
<svg xmlns="http://www.w3.org/2000/svg" xml:space="preserve" width="4.786in" height="4.786in" version="1.1" style="shape-rendering:geometricPrecision; text-rendering:geometricPrecision; image-rendering:optimizeQuality; fill-rule:evenodd; clip-rule:evenodd"
viewBox="0 0 813.34 813.34"
 xmlns:xlink="http://www.w3.org/1999/xlink"
 xmlns:xodm="http://www.corel.com/coreldraw/odm/2003">
 <defs>
  <style type="text/css">
   <![CDATA[
    .fil0 {fill:#5F5D5E;fill-rule:nonzero}
   ]]>
  </style>
 </defs>
 <g id="Layer_x0020_1">
  <metadata id="CorelCorpID_0Corel-Layer"/>
  <g id="eghtesad.svg">
   <g>
    <g>
     <path class="fil0" d="M211.13 215.56c-106.62,106.62 -106.62,280.03 0,386.86 106.62,106.83 280.03,106.62 386.86,0l33.29 33.29c-124.95,124.95 -328.5,124.95 -453.45,0 -124.95,-124.95 -124.95,-328.5 0,-453.45l33.29 33.29z"/>
    </g>
    <g>
     <path class="fil0" d="M813.34 406.67c0,224.19 -182.47,406.67 -406.67,406.67 -224.19,0 -406.67,-182.47 -406.67,-406.67 0,-224.19 182.47,-406.67 406.67,-406.67l0 47.2c-198.28,0 -359.47,161.19 -359.47,359.47 0,198.28 161.19,359.47 359.47,359.47 198.28,0 359.47,-161.19 359.47,-359.47l47.2 0 0 0z"/>
    </g>
    <path class="fil0" d="M628.97 282.56c8.64,-14.54 29.71,-20.65 36.87,-21.91 -32.24,-12.85 -75.86,-2.74 -75.86,-2.74 0,0 -64.27,-88.08 -190.48,-88.08 -126.21,0 -204.18,120.1 -205.02,133.17 42.35,-40.88 123.48,-63.21 183.74,-37.93 60.26,25.29 78.81,70.59 89.55,99.88 10.75,29.29 -7.59,64.9 38.77,107.46 25.92,20.44 57.52,17.7 77.12,10.75 -21.7,63.63 -100.51,121.37 -186.48,116.73 -63.84,-3.58 -111.25,-37.51 -111.25,-37.51l-12.22 37.51c0,0 59,39.61 123.48,39.61 29.5,0 97.56,2.74 178.89,-72.91 44.67,-42.98 80.07,-134.01 58.79,-211.76 -14.33,-49.73 -14.33,-57.95 -5.9,-72.27zm-133.17 42.56c-33.71,-63.42 -72.69,-90.61 -138.86,-107.88 94.19,-26.97 172.15,31.61 192.59,56.89 -20.86,12.43 -37.08,23.6 -53.73,50.99zm61.95 123.48c-27.6,0.63 -47.2,-24.65 -44.46,-55.84 1.9,-45.93 44.67,-76.49 60.26,-85.97 8.64,17.49 26.34,56.89 26.34,86.18 2.32,36.45 -17.49,55.63 -42.14,55.63z"/>
   </g>
  </g>
 </g>
</svg>
