<?xml version="1.0" encoding="UTF-8"?>
<!DOCTYPE svg PUBLIC "-//W3C//DTD SVG 1.1//EN" "http://www.w3.org/Graphics/SVG/1.1/DTD/svg11.dtd">
<!-- Creator: CorelDRAW 2020 (64-Bit) -->
<svg xmlns="http://www.w3.org/2000/svg" xml:space="preserve" width="3.74324in" height="1.21789in" version="1.1" style="shape-rendering:geometricPrecision; text-rendering:geometricPrecision; image-rendering:optimizeQuality; fill-rule:evenodd; clip-rule:evenodd"
viewBox="0 0 2963.44 964.18"
 xmlns:xlink="http://www.w3.org/1999/xlink"
 xmlns:xodm="http://www.corel.com/coreldraw/odm/2003">
 <defs>
  <style type="text/css">
   <![CDATA[
    .fil0 {fill:#5F5D5E;fill-rule:nonzero}
   ]]>
  </style>
 </defs>
 <g id="Layer_x0020_1">
  <metadata id="CorelCorpID_0Corel-Layer"/>
  <g id="farhang.svg">
   <g id="XMLID_7_">
    <path id="XMLID_5_" class="fil0" d="M1482.43 713.21c20.56,149.59 129.03,215.52 234.66,238.92 121.23,27.65 275.78,2.84 391.35,-28.36 127.61,-34.03 206.31,-80.82 361.57,-82.95 121.94,-1.42 243.17,23.39 332.5,123.36l160.93 -137.54c-19.14,-23.39 -102.09,-56.72 -134.7,-68.77 -164.48,-58.84 -356.6,-36.87 -509.74,30.49 -158.1,70.18 -451.61,211.98 -625.3,86.49 -131.86,-93.58 -152.42,-324.7 61.68,-388.51 63.1,-19.14 114.14,-1.42 153.84,34.03 72.31,70.19 63.1,229.7 -65.93,280.75 -63.1,24.81 -112.72,-42.54 -114.85,-82.95 -1.42,-35.45 19.14,-63.09 34.03,-77.28 34.03,-27.65 45.37,-19.14 67.35,-24.81l9.22 -3.54c-208.43,-70.18 -226.16,158.1 -102.09,209.85 97.13,40.41 277.2,0 307.68,-153.84 34.03,-174.4 -143.21,-229.7 -267.98,-222.61 -102.09,7.09 -225.45,38.28 -278.62,149.59 -18.44,40.41 -15.6,75.15 -15.6,117.69l0 0z"/>
    <path id="XMLID_4_" class="fil0" d="M1482.43 713.21c-20.56,149.59 -129.03,215.52 -234.66,238.92 -121.94,27.65 -277.2,2.84 -393.47,-28.36 -126.9,-34.03 -204.89,-80.82 -361.57,-82.95 -121.23,-1.42 -241.75,23.39 -331.09,123.36l-161.64 -137.54c20.56,-23.39 102.09,-56.72 136.12,-68.77 164.48,-58.84 356.61,-36.87 508.32,30.49 158.81,70.18 453.73,211.98 626.72,86.49 131.87,-93.58 152.43,-324.7 -61.68,-388.51 -63.1,-19.14 -114.85,-1.42 -153.84,34.03 -74.44,70.19 -64.52,229.7 65.93,280.75 63.1,24.81 112.72,-42.54 114.14,-82.95 2.83,-35.45 -17.73,-63.09 -34.03,-77.28 -33.32,-27.65 -45.37,-19.14 -65.93,-24.81l-10.63 -3.54c208.43,-70.18 226.16,158.1 102.8,209.85 -98.54,40.41 -277.2,0 -307.69,-153.84 -34.03,-174.4 141.08,-229.7 266.57,-222.61 102.8,7.09 226.16,38.28 280.75,149.59 17.01,40.41 14.89,75.15 14.89,117.69l0 0z"/>
    <polygon id="XMLID_3_" class="fil0" points="1482.43,0 1669.59,187.87 1482.43,376.45 1293.84,187.87 "/>
    <rect id="XMLID_2_" class="fil0" transform="matrix(0.372481 -0.372481 0.372481 0.372481 1669.32 188.372)" width="504.69" height="504.69"/>
    <polygon id="XMLID_1_" class="fil0" points="1105.97,0 919.52,187.87 1105.97,376.45 1293.84,187.87 "/>
   </g>
  </g>
 </g>
</svg>
