<?xml version="1.0" encoding="UTF-8"?>
<!DOCTYPE svg PUBLIC "-//W3C//DTD SVG 1.1//EN" "http://www.w3.org/Graphics/SVG/1.1/DTD/svg11.dtd">
<!-- Creator: CorelDRAW 2020 (64-Bit) -->
<svg xmlns="http://www.w3.org/2000/svg" xml:space="preserve" width="2.97926in" height="3.07723in" version="1.1" style="shape-rendering:geometricPrecision; text-rendering:geometricPrecision; image-rendering:optimizeQuality; fill-rule:evenodd; clip-rule:evenodd"
viewBox="0 0 559.76 578.17"
 xmlns:xlink="http://www.w3.org/1999/xlink"
 xmlns:xodm="http://www.corel.com/coreldraw/odm/2003">
 <defs>
  <style type="text/css">
   <![CDATA[
    .fil0 {fill:#5F5D5E;fill-rule:nonzero}
   ]]>
  </style>
 </defs>
 <g id="Layer_x0020_1">
  <metadata id="CorelCorpID_0Corel-Layer"/>
  <g id="goftego.svg">
   <g id="XMLID_6_">
    <path id="XMLID_4_" class="fil0" d="M424.92 407.79c-36.99,21.3 -67.25,43.71 -127.78,38.11 -177.1,-17.93 -202.88,-224.17 -99.76,-295.91 88.55,-59.41 186.06,-23.54 221.93,60.53 33.63,80.7 -6.73,155.8 -77.34,173.73 -19.05,4.48 -36.99,3.36 -59.41,-1.12 16.81,-5.6 49.32,-13.45 53.8,-49.32 7.85,-68.37 -49.32,-70.61 -47.08,-123.29 2.24,-32.5 24.66,-44.83 43.71,-49.32 -49.32,-25.78 -142.35,-5.6 -162.53,84.06 -30.26,175.98 199.51,243.23 275.73,87.43 32.51,-67.25 5.6,-145.71 -44.83,-197.27 -90.79,-90.79 -309.36,-36.99 -290.3,158.04 19.05,178.22 225.29,216.33 313.84,114.33l0 0z"/>
    <path id="XMLID_3_" class="fil0" d="M0.11 302.43c-4.48,142.35 123.29,276.85 283.58,275.73 151.32,-1.12 283.58,-132.26 275.73,-283.58 -12.33,76.22 -41.47,132.26 -86.31,171.49 -112.09,100.88 -271.25,102 -377.73,6.73 -20.18,-17.93 -41.47,-41.47 -58.28,-71.74 -28.02,-47.08 -25.78,-76.22 -36.99,-98.64l0 0z"/>
    <path id="XMLID_2_" class="fil0" d="M141.34 469.44c-8.97,-13.45 -25.78,-24.66 -48.2,-65.01 -50.44,-88.55 -39.23,-195.03 13.45,-272.37 50.44,-73.98 140.11,-118.81 237.62,-109.84 39.23,4.48 58.28,14.57 90.79,24.66 -79.58,-73.98 -271.25,-66.13 -358.68,65.01 -36.99,53.8 -58.29,125.54 -39.23,206.24 13.45,63.89 60.53,128.9 104.24,151.32l0 0z"/>
    <path id="XMLID_1_" class="fil0" d="M237.74 68.17c65.01,-4.48 97.52,-12.33 151.32,19.05 86.31,48.2 132.26,147.95 99.76,246.59 -11.21,33.63 -29.14,62.77 -51.56,84.06l-22.42 21.3c0,1.12 -1.12,1.12 -2.24,2.24 79.58,-22.42 153.56,-156.92 98.64,-273.49 -21.3,-44.84 -58.29,-81.82 -103.12,-100.88 -49.32,-21.3 -128.9,-26.9 -170.37,1.12l0 0z"/>
   </g>
  </g>
 </g>
</svg>
