<?xml version="1.0" encoding="UTF-8"?>
<!DOCTYPE svg PUBLIC "-//W3C//DTD SVG 1.1//EN" "http://www.w3.org/Graphics/SVG/1.1/DTD/svg11.dtd">
<!-- Creator: CorelDRAW 2020 (64-Bit) -->
<svg xmlns="http://www.w3.org/2000/svg" xml:space="preserve" width="3.70576in" height="3.70695in" version="1.1" style="shape-rendering:geometricPrecision; text-rendering:geometricPrecision; image-rendering:optimizeQuality; fill-rule:evenodd; clip-rule:evenodd"
viewBox="0 0 76604.18 76628.76"
 xmlns:xlink="http://www.w3.org/1999/xlink"
 xmlns:xodm="http://www.corel.com/coreldraw/odm/2003">
 <defs>
  <style type="text/css">
   <![CDATA[
    .str0 {stroke:#5F5D5E;stroke-width:143.56;stroke-miterlimit:2.61313}
    .fil1 {fill:none}
    .fil2 {fill:#5F5D5E}
    .fil0 {fill:white}
   ]]>
  </style>
 </defs>
 <g id="Layer_x0020_1">
  <metadata id="CorelCorpID_0Corel-Layer"/>
  <g id="radio-Iran.svg">
   <g>
    <path class="fil0" d="M9286.86 29071.91c-553.17,-291.93 -3303.64,-1751.72 -3349.7,-2059.03 -15.38,-107.59 2012.96,-2888.74 2519.99,-3395.85 138.27,-153.65 138.27,-138.27 399.52,-61.45 491.72,153.65 1090.96,430.28 1505.86,645.38 829.71,445.58 1951.44,1429.03 1029.51,2673.64l-983.45 1167.79c-338.07,291.93 -799.03,814.41 -1121.72,1029.51l0 0zm-8143.82 18607.82l3180.75 -3426.53c783.65,-783.65 1321.44,-1398.27 2181.92,-2212.6 184.42,-169.04 353.37,-368.83 537.79,-537.79 199.8,-184.42 368.75,-322.69 583.93,-537.87l3134.6 -2904.04c1244.61,-1091.04 2673.56,-2212.68 3872.11,-3272.96 1044.9,-921.92 2504.61,-2043.56 3641.71,-2950.19 215.1,-169.04 399.52,-307.31 630,-491.72 199.72,-153.65 445.58,-353.37 645.38,-460.96 -61.45,-583.93 -184.42,-1152.4 -215.1,-1751.72 -122.89,-2181.92 0,-3303.64 353.37,-5470.17 338.07,-2028.26 921.92,-4409.98 1644.13,-6192.38 491.72,-1229.23 599.32,-1490.47 1290.76,-2627.5 737.51,-1213.93 3902.87,-5639.29 5255.08,-6484.39 1106.34,-691.44 2151.24,-384.13 2381.72,783.65 184.34,906.62 -138.27,2550.75 -261.24,3503.36 -153.65,1198.55 -230.48,2489.31 -169.04,3718.54 245.86,4548.25 599.23,9373.13 -2135.85,13168.41 -291.93,399.52 -1152.4,1290.76 -1751.64,1183.17 -292.01,-61.45 -430.28,-245.86 -660.76,-337.99 -153.65,0 -2304.81,1736.26 -2581.43,1982.12 -230.48,215.1 -599.23,445.58 -783.65,737.59 76.83,199.72 829.8,1014.13 1014.13,1152.4 338.07,276.54 860.56,614.62 1321.52,829.71 583.85,276.54 952.69,399.52 1674.81,491.72 2274.13,245.86 3088.54,553.17 5500.94,-460.96 507.03,-215.1 998.75,-460.96 1413.65,-737.51 230.48,-153.65 445.58,-292.01 645.38,-445.66 245.86,-184.34 399.52,-338.07 614.62,-507.03 553.17,-460.96 1490.47,-1551.92 1859.23,-2458.54 783.73,-1920.67 -92.13,-4440.66 1997.58,-6668.72 660.68,-706.82 2489.22,-1536.54 3088.54,-1183.17 46.06,276.63 -153.65,1306.14 -276.63,1536.62 -307.31,553.17 -1644.13,722.21 -2381.63,1213.85 -276.63,184.42 -245.86,230.48 -276.63,645.38 -107.51,1106.34 -307.31,3134.6 -537.79,4010.46 -691.44,2550.75 -2504.61,4947.77 -4517.49,6392.18 -722.21,507.03 -1429.03,891.16 -2350.95,1290.68 -1213.85,522.41 -1828.46,445.58 -2965.57,630 -30.76,507.11 -30.76,2105.09 276.63,2397.1l-15.38 -199.8c138.27,-46.06 2151.15,122.97 2596.73,107.59 2089.79,-92.21 4532.95,-967.99 6238.53,-1920.67 2228.06,-1259.99 4133.35,-3027.09 5162.87,-5700.74 1090.96,-2811.91 799.03,-4456.04 691.44,-7191.13 -107.51,-2535.29 -291.93,-5193.55 353.45,-7590.65 199.72,-752.89 430.2,-1306.06 722.21,-1997.5 138.27,-322.69 829.71,-1721.04 783.65,-1905.37l-291.93 -30.76c-553.25,46.06 -1336.9,276.63 -1843.93,445.58 -630,215.18 -1259.99,461.04 -1859.23,737.59 -2458.54,1152.4 -3641.71,1982.12 -5593.15,3564.88 -122.89,107.51 -215.1,199.72 -338.07,307.31 -153.65,138.27 -199.72,184.34 -338.07,338.07 -476.34,522.41 -630,568.47 -1259.99,1336.82 -199.72,261.16 -368.75,476.34 -568.55,752.89 -122.89,169.04 -445.58,676.06 -599.23,722.21 30.76,-338.07 952.69,-1505.86 1229.23,-1843.93 153.65,-199.72 322.69,-368.75 476.34,-553.17 338.07,-414.82 676.14,-660.68 1044.9,-1029.51 706.82,-706.82 875.86,-860.48 1644.13,-1444.33 199.72,-153.65 399.52,-291.93 599.23,-445.58 399.52,-292.01 799.03,-599.32 1229.31,-860.48 1152.4,-722.21 1306.06,-860.56 2612.12,-1536.62 922,-476.34 1813.16,-906.54 2796.61,-1321.44 507.03,-215.1 952.69,-399.52 1551.92,-522.41 322.69,-61.53 537.79,-184.42 722.21,76.83 353.37,507.03 -230.48,1982.12 -399.52,2489.22 -184.42,553.17 -338.07,1029.51 -460.96,1613.37 -245.86,1229.31 -230.48,2612.2 -92.21,3872.19 276.54,2566.13 276.54,5285.84 -46.06,7851.89 -522.41,4225.56 -1582.68,5639.21 -3764.6,8681.61 -491.72,676.14 -1382.88,1613.45 -1982.2,2166.62 -706.82,660.68 -1444.33,1229.23 -2335.57,1813.16 -399.52,261.16 -829.71,537.79 -1290.76,783.65 -507.03,261.24 -1106.34,491.72 -1413.65,645.38 15.38,706.82 -61.45,1244.61 46.14,1997.5 76.83,660.76 230.48,1090.96 399.52,1674.89 368.75,-92.21 1090.96,676.06 2704.32,507.03 1628.75,-184.42 3349.7,-1106.34 4563.63,-2059.03 245.86,-184.34 1598.07,-1352.12 1382.88,-1859.23 -153.65,-276.54 -1644.13,230.48 -1859.23,-860.48 -138.27,-737.51 414.9,-1613.37 737.51,-1966.82 353.45,-399.52 968.07,-937.3 1598.07,-1167.79 261.24,-92.21 276.54,-61.45 522.41,0 507.11,138.27 630,783.65 1044.9,1029.51 307.31,-92.21 860.48,-1152.4 921.92,-1628.75 46.06,-491.72 -30.76,-1275.38 -153.65,-1751.72 -61.45,-261.24 -138.27,-261.24 30.76,-491.72l1905.29 -2612.12c46.14,-61.53 76.83,-107.59 138.35,-184.42l184.34 -199.72c583.93,1475.09 491.72,2796.53 76.83,4363.83 -891.16,3472.67 -2427.78,3472.67 -3011.63,4671.14 -399.52,845.1 -230.48,752.89 -829.8,1720.96 -722.21,1183.17 -1060.2,1628.83 -1843.85,2642.96 -92.21,122.89 -199.72,230.48 -291.93,368.75 107.51,138.27 276.54,276.54 430.2,399.52 153.65,138.27 338.07,199.72 491.72,338.07 676.06,184.42 1413.65,476.34 2166.54,491.72 1536.62,46.06 2827.3,-522.41 3995.08,-1336.82 768.35,-537.87 1536.62,-1183.17 2120.47,-1874.69 215.1,-245.86 399.52,-460.96 568.55,-737.51 399.52,-614.62 614.62,-1106.34 660.76,-2012.88 30.68,-737.59 -46.14,-1736.34 -430.28,-2212.68 -583.85,-706.82 -1521.16,-153.65 -2243.36,-276.54 -184.42,-322.69 107.59,-860.56 261.24,-1167.87 184.34,-399.52 353.37,-722.21 568.47,-1075.58 368.83,-614.62 891.24,-1475.09 1767.1,-1505.86 2228.06,-76.83 2719.71,2043.65 2689.02,3841.43 -30.76,2473.92 -2074.41,5885.07 -3703.16,7698.24 -245.86,276.63 -553.17,583.93 -768.27,860.48l829.71 76.83c706.82,-30.68 1382.88,15.38 2120.47,-46.06 1459.71,-138.27 4102.67,-583.85 5162.87,-1352.12 -15.38,-230.48 -184.42,-614.62 -245.86,-860.48 -276.54,-1014.21 -491.72,-1797.86 -599.23,-2888.74 -353.45,-3534.12 445.58,-8789.2 1597.98,-12123.6 814.41,-2320.19 1905.37,-4317.77 3088.54,-6130.85 768.27,-1183.17 1352.2,-2427.78 2212.68,-3534.12 430.2,-553.17 1183.17,-1382.97 1797.78,-1690.27 1644.13,-814.33 2043.65,691.44 2012.88,2135.85 -15.38,706.82 -122.89,1398.27 -245.86,2059.03 -537.79,3042.4 153.65,7959.4 -184.34,11201.59 -245.86,2366.25 -1167.87,4917 -2274.13,6960.65 -630,1167.79 -1567.3,2412.4 -2412.48,3380.47 -199.72,230.48 -353.37,384.13 -553.17,599.23 -215.1,230.48 -937.3,1029.51 -1060.2,1229.23 322.69,399.52 1505.78,783.65 2166.54,937.3 2350.95,522.41 5424.11,-799.03 7129.69,-2058.95 3411.23,-2519.99 4794.11,-6883.82 5193.63,-7360.17 0,-261.24 46.06,-353.45 46.06,-599.32l0 -1275.29c0,-276.63 -30.76,-368.75 -46.06,-599.32 -15.38,-829.71 -61.45,-1705.57 -153.65,-2443.08l-122.89 -1152.49c-307.39,-2504.53 -891.24,-5024.59 -1674.89,-7360.17 -706.82,-2105.09 -1336.82,-3518.74 -2289.51,-5424.03l-1613.53 -2873.69c-937.3,-1382.97 -1321.52,-2012.96 -2412.48,-3380.47l-1183.17 -1413.65c-368.75,-491.72 -2212.6,-2320.27 -2550.67,-2642.96 -1567.38,-1505.78 -3610.95,-3027.01 -5393.43,-4240.94l-1997.5 -1229.23c-138.27,-76.83 -261.24,-138.27 -414.9,-230.48 -153.65,-92.21 -276.54,-138.27 -414.82,-230.48 -1029.59,-599.23 -3257.58,-1597.98 -4440.74,-2028.26 -2873.36,-1060.2 -5716.04,-1797.78 -8773.81,-2166.62l-3580.18 -261.16c-261.24,0 -353.37,-46.06 -630,-46.06 -3288.26,15.38 -4394.6,153.65 -7175.75,568.55 -2612.2,399.52 -5562.46,1336.82 -7990.16,2320.19 -276.63,107.59 -614.7,245.86 -891.24,384.13l-1767.02 845.18c-153.65,76.83 -276.63,138.27 -430.28,215.1 -153.65,76.83 -261.24,138.27 -414.9,230.48 -153.65,92.21 -261.16,138.27 -414.82,230.48 -1644.21,906.54 -2796.61,1644.13 -4333.15,2781.15l-1966.82 1521.24c-445.58,399.52 -768.27,645.3 -1198.55,1075.58 -122.89,122.89 -215.1,169.04 -338.07,291.93 -522.41,537.79 -1275.29,1229.23 -1736.26,1782.4l-2243.44 2642.96c-3180.67,4256.33 -5470.17,8481.89 -6929.89,14366.96 -368.83,1521.16 -568.55,2811.91 -783.65,4363.83 -122.97,814.33 -215.18,2105.09 -261.24,2934.8 -15.38,199.8 15.38,430.28 0,645.38 -46.14,875.86 -61.45,2304.89 30.68,3119.22 15.38,199.8 15.38,891.24 61.53,1213.93l184.34 1767.02c245.86,1843.93 476.34,2658.26 829.8,4379.22l0 0z"/>
    <path class="fil1" d="M41662.41 60602.37c-184.42,153.65 -291.93,322.69 -460.96,476.34 -307.31,291.93 -1090.96,1229.23 -1367.5,1352.12 -476.34,199.8 -2043.65,-998.75 -2320.27,-1213.85 -645.38,-507.03 -875.86,-599.23 -614.62,-952.69 261.24,-353.37 537.79,-630 799.03,-998.75l1521.16 -2059.03c322.69,0 1229.31,630 1505.86,799.03 645.38,399.52 1044.81,952.69 1213.85,1060.2l1121.72 -1367.5c138.27,-169.04 245.86,-276.54 353.37,-445.58 1044.9,-15.38 2028.34,706.82 2519.99,1198.47 860.48,860.48 553.17,1459.79 -276.54,2350.95 -460.96,491.72 -338.07,414.9 -906.62,968.07 -215.1,199.72 -691.44,829.71 -1106.34,522.41 -599.23,-445.58 -1521.16,-1628.75 -1982.12,-1690.19l0 0zm-21588.85 -8297.47c76.83,-292.01 445.66,-645.38 614.7,-845.18l1859.23 -2473.84c307.31,0 1259.99,630 1490.47,783.65 645.38,430.2 1075.58,983.37 1213.93,1075.58 138.27,-138.27 261.16,-307.31 384.13,-460.96 122.89,-153.65 245.86,-307.31 368.75,-460.96 138.27,-169.04 261.24,-307.31 384.13,-460.96 107.59,-138.27 245.86,-322.69 368.75,-414.9 568.55,-169.04 3380.47,1183.17 2950.27,2458.54 -184.42,537.79 -1213.93,1659.43 -1628.83,2043.56 -967.99,922 -937.3,783.65 -2058.95,-338.07 -261.24,-261.16 -706.82,-737.51 -1014.13,-829.71 -76.83,46.06 -491.72,445.58 -583.93,553.17 -184.42,215.1 -307.31,353.45 -522.41,553.17 -291.93,291.93 -630,983.45 -1290.68,660.76 -691.52,-353.45 -2228.06,-1367.5 -2535.45,-1843.85l0 0zm-17808.79 -1029.51c15.38,215.1 445.58,1244.61 553.17,1505.78 338.07,860.48 1244.61,2842.68 1659.43,3534.12l952.69 1690.27c76.83,122.89 122.97,184.34 199.8,322.61 583.85,998.83 1828.46,2781.23 2596.73,3718.54 1213.93,1475.17 1644.21,1997.58 2965.57,3319.02 184.42,184.42 338.07,338.07 522.49,522.41 92.21,92.21 169.04,153.65 261.24,261.24 476.34,476.34 1982.12,1767.1 2550.67,2212.68 1859.31,1459.71 2781.23,2028.26 4655.84,3165.29 645.38,399.52 1705.57,922 2412.4,1275.38 122.89,61.45 230.48,107.59 353.37,169.04 122.97,61.45 245.86,107.59 384.13,169.04l1444.41 630c491.72,199.72 1014.13,414.9 1536.54,583.85 261.24,92.21 491.72,169.04 768.27,276.63 1275.38,430.2 2781.23,860.48 4102.67,1121.64 1382.97,276.54 2182,399.52 3595.57,599.23 307.31,46.14 614.7,46.14 952.69,92.21l2965.57 184.42c353.45,0 691.52,0 1044.9,0 1382.88,0 3534.12,-184.42 4901.62,-368.75 1183.17,-153.65 2381.72,-399.52 3503.36,-660.68 2550.75,-568.55 4655.84,-1382.97 7022.18,-2397.1 138.27,-61.45 230.48,-107.59 353.37,-169.04 553.17,-230.48 1552,-752.89 2105.17,-1060.2l1966.74 -1152.49c107.59,-61.45 215.18,-138.27 338.07,-215.1l2765.85 -1951.44c107.59,-76.83 199.72,-138.27 291.93,-230.48 199.72,-153.65 368.75,-291.93 568.55,-460.96l1966.82 -1720.96c92.21,-76.83 169.04,-169.04 261.24,-261.24 430.2,-430.28 1674.81,-1659.51 2058.95,-2135.85 138.35,-184.42 338.07,-368.75 491.72,-553.17 169.04,-215.1 322.69,-368.75 491.72,-583.85l460.96 -568.55c814.41,-1014.13 2335.65,-3134.6 3011.71,-4348.53 76.83,-122.89 122.89,-215.1 184.42,-322.69 61.45,-107.51 107.59,-199.72 184.42,-337.99l737.51 -1352.2c122.89,-245.86 230.48,-476.34 353.37,-722.21 476.34,-937.3 875.86,-1905.37 1275.38,-2919.5l1290.68 -3949.02c445.66,-1628.75 614.7,-2673.56 891.24,-4333.07 46.06,-307.39 76.83,-630.08 122.89,-922 46.06,-322.69 92.21,-645.38 92.21,-998.75 -122.89,184.42 -414.9,1014.13 -522.41,1275.38 -1121.72,2627.5 -3196.05,5424.03 -5593.15,6960.65 -2443.16,1551.92 -5239.69,2627.5 -8205.26,1137.02 -691.44,-353.37 -1505.86,-1029.51 -1982.2,-1567.3 -153.65,76.83 -368.75,245.86 -507.03,353.37 -153.65,122.89 -322.69,215.1 -491.72,338.07 -998.75,676.06 -2366.33,1306.06 -3626.33,1444.33 -998.75,122.97 -2120.47,-76.83 -2673.64,-645.3 -337.99,-338.07 -1321.44,-1505.86 -1121.64,-2197.3l-829.71 -76.83c-722.21,614.62 -845.18,860.48 -1828.55,1567.3 -614.62,445.58 -1413.65,937.3 -2412.4,983.37 -1091.04,61.45 -1905.37,-445.58 -2443.16,-952.69 -522.41,-507.03 -1106.34,-1551.92 -1121.72,-2289.43l153.65 15.3c-138.27,-138.27 -338.07,-199.72 -491.72,-337.99 -138.27,-138.35 -322.69,-261.24 -430.2,-399.52l-860.48 906.7c-199.72,215.1 -691.44,583.85 -952.69,768.27 -568.55,414.9 -1475.09,952.69 -2397.1,1044.81 -1428.95,153.65 -2473.84,-921.92 -3103.84,-2058.95 -107.59,-199.8 -491.72,-937.3 -522.41,-1121.72 -184.42,-583.85 -322.69,-1014.13 -399.52,-1674.81 -92.21,-752.97 -15.38,-1290.76 -46.14,-1997.58 -1244.61,307.31 -2366.25,829.71 -3887.49,261.24 -1029.51,-384.13 -1936.05,-1475.09 -2089.71,-2458.54 -307.31,-307.31 -307.31,-1889.91 -276.63,-2397.02 -2043.56,0 -3211.43,-215.1 -4594.32,-1198.55 -752.89,-537.79 -2412.4,-2366.25 -2658.26,-3103.84 -215.1,61.45 -507.03,338.07 -676.06,476.34 -215.1,169.04 -384.13,307.31 -599.23,476.34 -1198.55,983.37 -2427.78,1920.67 -3626.33,2934.8 -752.97,645.38 -1690.27,1275.38 -2427.78,1966.82l-1137.1 1044.9c-199.72,169.04 -368.75,337.99 -568.47,507.03l-4532.95 4210.18c-184.34,215.1 -322.69,368.75 -537.79,537.79 -460.96,399.52 -3949.02,4486.81 -4148.74,4609.78l0 0z"/>
    <path class="fil2" d="M20688.25 29794.12c-184.42,-368.83 -292.01,-2304.89 -307.31,-2827.3 -15.38,-906.62 92.13,-2028.26 245.86,-2904.12 307.31,-1782.4 691.44,-3319.02 1229.23,-4947.77 829.71,-2489.31 1997.5,-4579.02 3595.57,-6515.07 399.52,-476.34 1475.09,-1674.81 1966.82,-1859.23 476.34,-184.42 921.92,-15.38 983.37,445.58 169.04,1060.2 -630,3949.02 -860.48,5301.14 -184.42,1075.66 76.83,4594.4 122.89,5931.22 15.38,507.03 46.06,1014.13 61.45,1521.16 15.38,445.66 76.83,998.83 46.06,1429.03 -122.89,2012.88 -1183.17,2719.71 -1382.88,2197.3 -122.89,-353.45 153.65,-1644.21 -184.42,-2089.79 -445.58,61.45 -3918.25,3027.09 -4855.56,3779.98 -138.19,122.97 -522.33,476.42 -660.6,537.87l0 0zm-19545.21 17885.62c153.65,614.7 322.69,1244.69 507.11,1828.55 92.13,307.31 184.34,599.23 276.54,875.86 107.59,307.31 169.04,614.62 322.69,891.24 199.72,-122.97 3687.77,-4210.26 4148.74,-4609.78 215.1,-184.34 353.37,-322.69 537.79,-537.79l4532.87 -4210.18c199.72,-169.04 368.75,-338.07 568.55,-507.03l1137.1 -1044.9c737.51,-706.82 1674.81,-1336.82 2427.7,-1966.82 1198.55,-1014.13 2412.48,-1951.44 3626.33,-2934.8 215.1,-169.04 399.52,-307.31 599.32,-476.34 168.95,-138.27 460.96,-414.9 676.06,-476.34 230.48,737.51 1889.99,2566.05 2658.26,3103.84 1382.88,983.45 2550.67,1198.55 4594.32,1198.55 1121.72,-184.42 1751.72,-107.59 2965.57,-630 921.92,-399.52 1628.75,-783.65 2350.95,-1290.76 2012.88,-1444.33 3826.05,-3841.43 4517.49,-6392.1 230.48,-875.86 430.28,-2904.12 537.79,-4010.46 30.76,-399.52 0,-460.96 276.63,-645.38 737.51,-491.72 2074.33,-660.76 2381.63,-1213.93 122.89,-230.48 322.69,-1259.99 276.63,-1536.54 -614.7,-338.07 -2443.16,491.72 -3088.54,1183.17 -2089.79,2228.06 -1213.93,4747.97 -1997.58,6668.72 -368.75,906.54 -1306.06,1997.58 -1859.23,2458.54 -215.1,169.04 -368.75,322.69 -614.62,507.03 -199.72,153.65 -414.9,291.93 -645.38,445.58 -430.2,276.63 -906.62,522.41 -1413.65,737.59 -2412.48,1014.13 -3211.43,706.82 -5500.94,460.96 -706.82,-76.83 -1090.96,-215.1 -1674.89,-491.72 -460.96,-215.1 -983.37,-568.55 -1321.44,-829.71 -184.42,-153.74 -937.3,-952.69 -1014.13,-1152.49 199.72,-276.54 553.17,-522.41 783.65,-737.51 276.54,-245.86 2412.48,-1982.2 2581.43,-1982.2 230.48,92.21 368.75,276.54 660.68,338.07 583.93,107.59 1459.79,-768.27 1751.72,-1183.17 2735.09,-3795.36 2397.1,-8620.16 2135.85,-13168.41 -61.45,-1213.93 15.38,-2519.99 169.04,-3718.54 122.89,-952.69 430.2,-2581.43 261.24,-3503.36 -230.56,-1167.79 -1275.38,-1475.09 -2381.72,-783.65 -1367.58,860.48 -4532.87,5270.38 -5255.08,6484.31 -676.14,1137.1 -783.65,1398.27 -1290.76,2627.58 -722.21,1782.4 -1306.06,4148.74 -1644.13,6192.38 -353.37,2181.92 -476.34,3288.26 -353.37,5470.17 30.76,599.23 153.65,1167.79 215.1,1751.72 -199.72,122.89 -445.58,307.31 -645.38,460.96 -230.48,184.34 -414.9,307.31 -630,491.72 -1137.02,906.54 -2612.2,2012.88 -3641.71,2950.19 -1198.47,1075.58 -2627.5,2181.92 -3872.19,3272.88l-3134.36 2934.89c-199.72,215.1 -368.75,353.37 -583.85,537.79 -184.42,169.04 -368.75,368.75 -537.79,537.79 -860.56,814.41 -1398.35,1413.65 -2182,2212.68l-3196.05 3411.15z"/>
    <path class="fil2" d="M60639.07 46604.16c-338.07,-491.72 -476.34,-522.41 -768.27,-1213.85 -1290.76,-2980.95 -722.21,-5685.36 -276.54,-8635.54 814.33,-5316.6 1966.74,-7114.3 4563.63,-11508.9 430.2,-737.59 1106.34,-1813.16 1859.23,-2182 599.23,-291.93 1090.96,-184.42 1244.61,430.28 122.89,491.72 -107.59,1229.23 -215.1,1720.96 -522.41,2719.71 -875.86,4333.15 -799.03,7191.13 30.76,1275.38 199.72,2612.2 153.65,3872.19 -76.83,2012.88 -875.86,4824.8 -1659.51,6346.03 -476.34,921.92 -1075.58,1705.57 -1674.81,2320.19 -353.45,353.45 -1751.8,1536.62 -2427.86,1659.51l0 0zm-8942.85 2504.61c-199.72,691.44 783.65,1843.93 1121.72,2197.3 553.17,553.17 1690.19,752.89 2673.64,645.38 1259.99,-153.65 2627.5,-768.27 3626.33,-1444.41 184.34,-122.89 337.99,-230.48 491.64,-338.07 153.74,-107.51 353.45,-276.54 507.11,-353.37 476.34,537.79 1290.68,1213.93 1982.12,1567.3 2965.57,1490.56 5762.18,414.9 8205.34,-1137.02 2397.02,-1536.54 4471.42,-4333.15 5593.07,-6960.65 122.97,-276.54 399.52,-1106.34 522.49,-1275.38 61.45,-261.24 92.13,-845.1 122.89,-1152.4 15.38,-215.1 -15.38,-399.52 15.38,-614.62 30.68,-199.72 15.38,-414.9 15.38,-614.62 -399.52,460.96 -1767.1,4824.8 -5193.63,7360.17 -1705.57,1259.99 -4794.11,2581.43 -7129.69,2058.95 -660.68,-153.65 -1843.85,-537.79 -2166.54,-937.3 122.89,-215.1 860.48,-998.75 1060.2,-1229.23 199.72,-215.1 353.37,-368.75 553.17,-599.23 829.71,-968.07 1782.4,-2228.06 2412.4,-3380.47 1106.34,-2043.65 2028.34,-4594.4 2274.13,-6960.65 338.07,-3242.19 -353.37,-8159.2 184.42,-11201.59 122.89,-660.76 230.48,-1352.2 245.86,-2059.03 46.06,-1429.03 -353.37,-2950.19 -2012.88,-2135.85 -614.7,307.31 -1367.58,1137.1 -1797.86,1690.27 -860.48,1121.64 -1444.33,2350.95 -2212.6,3534.12 -1183.17,1828.46 -2289.51,3810.66 -3088.54,6130.85 -1152.4,3319.02 -1951.44,8574.1 -1598.07,12123.6 107.59,1090.96 322.69,1874.61 599.32,2888.74 61.45,261.24 230.48,630 245.86,860.48 -1060.28,768.27 -3703.16,1213.85 -5162.95,1352.12 -691.44,15.38 -1382.88,-46.06 -2089.71,-15.38l0 0z"/>
    <path class="fil0 str0" d="M60639.07 46604.16c676.06,-107.59 2074.41,-1306.06 2412.4,-1644.13 599.32,-614.62 1198.55,-1398.27 1674.89,-2320.19 783.65,-1536.62 1598.07,-4333.15 1659.51,-6346.03 46.06,-1259.99 -122.97,-2612.2 -153.65,-3872.19 -61.45,-2858.06 276.54,-4471.42 799.03,-7191.13 92.21,-491.72 337.99,-1244.61 215.1,-1720.96 -169.04,-630.08 -660.76,-722.21 -1244.61,-430.28 -752.97,368.75 -1413.73,1444.41 -1859.31,2182 -2596.82,4394.6 -3733.84,6192.3 -4563.63,11508.9 -460.96,2965.57 -1014.13,5654.51 276.63,8635.54 307.31,676.06 430.28,706.74 783.65,1198.47l0 0z"/>
    <path class="fil0" d="M20688.25 29794.12c138.27,-61.45 522.41,-399.52 691.44,-537.79 921.92,-752.97 4409.98,-3733.92 4855.56,-3779.98 322.69,445.58 46.06,1736.26 184.42,2089.71 184.42,507.03 1259.99,-184.42 1382.88,-2197.3 30.76,-430.2 -30.76,-983.37 -46.06,-1428.95 -15.38,-507.11 -46.06,-1014.13 -61.45,-1521.24 -46.06,-1336.82 -307.31,-4855.56 -122.89,-5931.14 245.78,-1367.58 1029.51,-4240.94 860.48,-5301.22 -76.83,-476.34 -507.11,-645.38 -983.45,-445.58 -491.72,199.72 -1582.6,1382.97 -1966.74,1859.31 -1598.07,1936.05 -2750.47,4025.76 -3595.65,6514.99 -537.79,1628.83 -937.3,3165.37 -1229.23,4947.77 -153.65,875.86 -261.24,1997.58 -245.86,2904.12 -15.46,522.41 92.13,2458.46 276.54,2827.3l0 0z"/>
    <path class="fil2" d="M28063.8 41226.19c168.95,983.37 1060.2,2074.33 2089.71,2458.46 1521.24,553.17 2642.88,46.14 3887.49,-261.16 307.31,-153.65 906.62,-384.13 1413.65,-645.38 460.96,-230.48 891.24,-522.49 1290.76,-783.65 906.54,-599.32 1628.75,-1167.87 2335.57,-1813.16 599.23,-553.17 1490.47,-1490.47 1982.2,-2166.62 2181.92,-3042.4 3242.19,-4456.04 3764.6,-8681.61 307.31,-2550.67 322.69,-5285.76 46.06,-7851.89 -138.27,-1259.99 -153.65,-2642.88 92.21,-3872.19 122.89,-583.85 276.54,-1075.58 460.96,-1613.37 169.04,-507.03 752.89,-1982.2 399.52,-2489.22 -184.42,-276.63 -399.52,-153.65 -722.21,-76.83 -599.23,122.89 -1044.81,307.31 -1551.92,522.41 -983.45,414.9 -1874.61,845.1 -2796.61,1321.44 -1306.06,676.06 -1459.71,814.33 -2612.12,1536.54 -430.28,261.24 -829.8,568.55 -1229.31,860.56 -199.72,153.65 -399.52,276.54 -599.23,445.58 -752.89,583.85 -921.92,737.51 -1644.13,1444.33 -368.75,368.75 -706.82,614.62 -1044.9,1029.51 -153.65,199.8 -322.69,353.45 -476.34,553.17 -276.54,338.07 -1198.47,1505.86 -1229.23,1843.93 153.65,-46.06 476.34,-553.17 599.23,-722.21 199.8,-261.24 368.75,-491.72 568.55,-752.89 614.62,-783.73 768.27,-814.41 1259.99,-1336.9 153.65,-153.65 184.42,-199.72 338.07,-337.99 122.89,-92.21 215.1,-199.8 338.07,-307.39 1951.44,-1582.6 3119.22,-2412.4 5593.15,-3564.8 599.23,-276.63 1229.23,-522.41 1859.23,-737.59 507.03,-169.04 1290.68,-399.52 1843.85,-445.58l292.01 30.76c46.06,184.42 -660.76,1582.68 -783.65,1905.37 -292.01,676.06 -522.49,1244.61 -722.21,1997.5 -645.38,2397.1 -461.04,5055.28 -353.45,7590.65 107.59,2750.47 414.9,4379.22 -691.44,7191.13 -1044.81,2658.26 -2934.89,4425.36 -5162.87,5700.74 -1690.27,967.99 -4148.74,1843.85 -6238.53,1920.67 -430.2,15.38 -2458.46,-138.27 -2596.73,-107.59l0 215.26z"/>
    <path class="fil2" d="M43214.33 48340.5l-153.65 -15.38c15.38,752.89 583.93,1782.4 1121.72,2289.51 537.79,522.41 1336.82,1014.13 2443.16,952.69 1014.13,-46.14 1797.78,-553.17 2412.4,-983.45 983.37,-706.82 1106.34,-952.69 1828.55,-1567.3 215.1,-276.54 522.41,-583.85 768.27,-860.48 1613.37,-1813.16 3657.01,-5224.31 3703.16,-7698.24 30.68,-1797.78 -460.96,-3933.64 -2689.02,-3841.43 -875.86,30.76 -1413.65,906.62 -1767.02,1505.86 -215.18,353.37 -368.83,676.06 -568.55,1075.58 -153.65,307.31 -445.66,845.1 -261.24,1167.79 737.51,122.97 1659.43,-430.2 2243.36,276.63 399.52,476.34 476.34,1475.09 430.28,2212.6 -46.14,906.62 -261.24,1398.27 -660.76,2012.96 -184.42,276.54 -368.75,491.72 -568.55,737.51 -599.23,691.44 -1352.12,1336.82 -2120.47,1874.61 -1167.79,814.41 -2458.46,1382.97 -3995.08,1336.82 -752.81,0.08 -1490.39,-276.46 -2166.54,-476.26l0 0z"/>
    <path class="fil2" d="M34486.66 47080.5c30.76,199.72 399.52,921.92 522.41,1121.72 630,1121.64 1674.89,2212.6 3103.92,2058.95 921.92,-107.51 1813.08,-630 2397.02,-1044.81 261.24,-184.42 752.97,-553.17 952.69,-768.27l860.48 -845.18c92.21,-138.27 184.42,-230.48 292.01,-368.75 783.65,-998.75 1121.64,-1459.71 1843.85,-2642.88 599.23,-968.07 430.2,-891.24 829.71,-1720.96 568.55,-1198.55 2120.47,-1198.55 3011.71,-4671.22 399.52,-1582.6 507.03,-2888.74 -76.83,-4363.83l-184.42 199.72c-61.45,76.83 -92.21,122.97 -138.27,184.42l-1905.37 2612.2c-168.95,230.48 -107.51,230.48 -30.68,491.72 122.89,491.72 215.1,1259.99 153.65,1751.64 -46.14,476.34 -614.62,1536.62 -922,1628.83 -399.52,-245.86 -522.41,-891.24 -1044.81,-1029.51 -261.24,-61.53 -261.24,-92.21 -522.41,0 -630,215.1 -1244.61,768.27 -1598.07,1167.79 -307.31,353.37 -875.86,1244.61 -737.51,1966.74 215.1,1091.04 1705.57,583.93 1859.23,860.56 199.72,507.03 -1137.02,1674.81 -1382.88,1859.23 -1213.93,952.69 -2934.89,1889.99 -4563.63,2059.03 -1628.83,184.34 -2335.65,-599.32 -2719.79,-507.11l0 0z"/>
    <path class="fil2" d="M41662.41 60602.37c445.58,46.06 1382.88,1244.61 1982.2,1705.57 414.9,307.31 891.16,-307.31 1106.34,-522.41 568.55,-553.17 445.58,-476.34 906.54,-968.07 829.71,-906.54 1137.1,-1505.78 276.54,-2350.87 -491.64,-491.72 -1475.09,-1213.93 -2519.91,-1198.55 -107.59,153.65 -215.1,276.54 -353.45,445.58l-1121.64 1367.58c-184.42,-107.59 -568.55,-660.76 -1213.93,-1060.28 -276.54,-169.04 -1183.17,-799.03 -1505.78,-799.03l-1521.24 2059.03c-276.54,368.75 -537.79,630 -799.03,998.75 -261.24,368.75 -30.68,460.96 614.62,952.69 276.63,215.1 1859.31,1429.03 2320.27,1213.93 276.54,-107.59 1060.2,-1060.28 1367.5,-1352.2 184.42,-169.04 291.93,-338.07 460.96,-491.72l0 0z"/>
    <path class="fil2 str0" d="M20073.56 52304.89c322.69,476.34 1859.31,1490.47 2535.37,1828.46 660.76,322.69 998.75,-353.37 1290.76,-660.68 215.1,-215.1 337.99,-353.45 522.41,-553.17 92.21,-92.21 491.72,-507.11 583.85,-553.17 322.69,92.21 752.97,568.55 1014.13,829.71 1137.1,1121.72 1091.04,1275.38 2059.03,338.07 399.52,-384.13 1444.41,-1521.24 1628.75,-2043.65 430.28,-1290.68 -2381.63,-2627.5 -2950.19,-2458.46 -138.27,92.13 -261.24,276.54 -368.75,414.82 -122.97,153.65 -245.86,292.01 -384.22,461.04 -122.89,153.65 -261.16,307.31 -368.75,460.96 -122.89,169.04 -245.86,337.99 -384.13,460.96 -138.27,-76.83 -583.85,-645.38 -1213.85,-1075.66 -230.48,-153.65 -1198.55,-799.03 -1490.47,-783.65l-1859.31 2473.92c-168.95,215.1 -537.79,568.47 -614.62,860.48l0 0z"/>
    <path class="fil2" d="M9286.86 29071.91c322.69,-230.48 783.65,-737.59 1106.34,-1044.9l983.45 -1167.79c921.92,-1229.23 -199.8,-2212.68 -1029.51,-2673.64 -414.9,-230.48 -1014.13,-491.72 -1505.86,-645.38 -245.86,-76.83 -245.86,-76.83 -399.52,61.45 -491.72,507.11 -2535.37,3303.64 -2519.99,3395.85 76.83,322.69 2827.3,1782.48 3365.08,2074.41l0 0z"/>
   </g>
  </g>
 </g>
</svg>
