<?xml version="1.0" encoding="UTF-8"?>
<!DOCTYPE svg PUBLIC "-//W3C//DTD SVG 1.1//EN" "http://www.w3.org/Graphics/SVG/1.1/DTD/svg11.dtd">
<!-- Creator: CorelDRAW 2020 (64-Bit) -->
<svg xmlns="http://www.w3.org/2000/svg" xml:space="preserve" width="3.01289in" height="3.10028in" version="1.1" style="shape-rendering:geometricPrecision; text-rendering:geometricPrecision; image-rendering:optimizeQuality; fill-rule:evenodd; clip-rule:evenodd"
viewBox="0 0 365.47 376.08"
 xmlns:xlink="http://www.w3.org/1999/xlink"
 xmlns:xodm="http://www.corel.com/coreldraw/odm/2003">
 <defs>
  <style type="text/css">
   <![CDATA[
    .fil0 {fill:#5F5D5E;fill-rule:nonzero}
   ]]>
  </style>
 </defs>
 <g id="Layer_x0020_1">
  <metadata id="CorelCorpID_0Corel-Layer"/>
  <g id="radio-javan.svg">
   <g>
    <g>
     <path class="fil0" d="M71.81 279.91c0.2,0 -4.12,3.62 -3.41,0 59.66,-38.67 125.84,-91.39 219.25,-98.22 41.68,-3.01 80.05,10.75 77.74,49.11 -1.51,24 -17.68,45.3 -31.94,60.46 -42.88,45.8 -113.79,81.05 -190.72,84.56 -48.71,2.21 -88.08,-9.94 -112.99,-34.25 -14.76,-14.46 -29.73,-34.55 -29.73,-66.29 0,-57.65 42.68,-91.9 75.32,-115.4 38.67,-27.82 77.84,-46.7 127.95,-61.67 -2.31,-11.45 -10.24,-17.07 -18.28,-22.8 7.63,-3.82 12.35,-22.1 19.48,-22.8 6.03,-0.7 15.77,14.56 15.97,21.69 0.3,11.75 -9.14,16.17 -13.76,22.8 7.43,-2.11 18.18,-6.83 27.42,-3.41 3.11,4.22 -0.4,9.74 -1.1,13.76 21.39,-1.81 26.51,-19.89 26.31,-43.39 -7.73,2.21 -12.35,17.17 -18.28,25.11 2.11,-10.04 11.35,-23 17.07,-33.14 -0.9,-23.7 3.42,-42.28 12.55,-56.04 3.31,7.73 -2.81,25.11 -1.11,38.77 6.53,-4.02 13.16,-14.36 23.9,-14.86 8.74,-0.4 16.17,8.94 26.31,9.14 9.74,0.2 11.65,-8.03 20.59,-3.41 0.7,12.65 -13.36,15.47 -20.59,20.59 -7.93,5.62 -14.56,12.76 -22.8,17.07 0.4,20.79 -16.07,44.29 -35.45,30.83 -2.01,17.07 -27.62,32.64 -38.77,13.76 -44.69,11.05 -86.47,27.72 -126.65,51.52 -37.36,22.2 -95.31,55.64 -87.98,117.61 6.83,58.05 71.51,75.53 142.82,72.01 63.07,-3.21 127.55,-32.74 167.92,-67.39 13.66,-11.75 45.4,-35.65 37.66,-59.36 -11.85,-36.56 -80.85,-28.12 -119.92,-19.48 -63.07,14.06 -114.39,46.3 -164.81,73.11l0 0zm226.07 -224.97c4.72,-5.12 11.85,-7.93 15.97,-13.76 -13.96,-12.86 -38.87,-12.55 -44.49,6.83 -0.9,3.21 -3.92,35.85 -3.41,37.66 4.22,15.27 29.33,-1.51 19.48,-17.07 -5.72,-1.51 -5.62,2.81 -10.24,2.21 -16.47,-15.47 14.36,-36.16 22.7,-15.87z"/>
    </g>
    <g>
     <path class="fil0" d="M357.24 99.43c1.81,20.79 -4.72,43.29 -29.73,41.18 -10.85,18.48 -25.71,32.94 -54.84,33.14 23,-4.72 38.47,-17.07 49.11,-34.35 -24.51,-22.8 -6.53,-72.81 13.76,-87.98l4.62 0c0.4,25.91 -1.61,59.26 -10.24,79.94 17.88,7.13 23.1,-17.58 27.32,-31.94l0 0zm-26.31 -21.59c0.8,-6.13 6.13,-12.86 1.1,-17.07 -14.06,10.75 -30.63,59.36 -5.72,70.81 5.12,-14.66 2.31,-36.66 4.62,-53.73z"/>
    </g>
    <path class="fil0" d="M288.74 109.77c21.09,-1.2 11.55,28.72 3.41,39.97 -9.74,13.46 -30.73,19.38 -35.45,22.8 6.73,-8.34 57.75,-36.46 25.11,-48.01 1,-6.23 4.12,-10.34 6.93,-14.76z"/>
    <path class="fil0" d="M276.19 105.15c5.02,8.54 -2.21,23.4 -7.93,28.52 -2.11,25.61 -16.57,38.97 -41.18,42.28 9.34,-7.43 28.42,-14.96 34.25,-29.73 -1.51,-5.12 -10.34,3.41 -14.86,-1.1 -0.2,-10.85 8.24,-13.06 17.07,-14.86 7.23,-5.42 6.83,-18.38 12.65,-25.11z"/>
    <path class="fil0" d="M205.39 158.88c-0.1,4.42 7.53,5.82 6.83,10.24 -1.31,6.23 -3.62,11.55 -10.24,12.55 -1.51,-4.92 -5.82,-7.23 -7.93,-11.45 1.41,-5.12 6.23,-6.73 7.93,-11.45 -2.41,-4.02 -5.12,-7.83 -9.14,-10.24 3.41,-4.22 7.03,-8.24 10.24,-12.55 5.82,5.72 9.14,5.82 9.14,12.55 -0.1,4.12 -6.83,8.13 -6.83,10.34z"/>
    <path class="fil0" d="M204.18 217.14c21.49,5.32 20.59,38.77 0,44.49 -3.31,-10.14 -10.14,-16.57 -18.28,-21.69 4.72,-9.04 13.46,-13.96 18.28,-22.8z"/>
   </g>
  </g>
 </g>
</svg>
