<?xml version="1.0" encoding="UTF-8"?>
<!DOCTYPE svg PUBLIC "-//W3C//DTD SVG 1.1//EN" "http://www.w3.org/Graphics/SVG/1.1/DTD/svg11.dtd">
<!-- Creator: CorelDRAW 2020 (64-Bit) -->
<svg xmlns="http://www.w3.org/2000/svg" xml:space="preserve" width="2.97491in" height="3.84749in" version="1.1" style="shape-rendering:geometricPrecision; text-rendering:geometricPrecision; image-rendering:optimizeQuality; fill-rule:evenodd; clip-rule:evenodd"
viewBox="0 0 274.35 354.82"
 xmlns:xlink="http://www.w3.org/1999/xlink"
 xmlns:xodm="http://www.corel.com/coreldraw/odm/2003">
 <defs>
  <style type="text/css">
   <![CDATA[
    .fil0 {fill:#5F5D5E;fill-rule:nonzero}
   ]]>
  </style>
 </defs>
 <g id="Layer_x0020_1">
  <metadata id="CorelCorpID_0Corel-Layer"/>
  <path id="radio-Maaref.svg" class="fil0" d="M268.17 137.85c-8.39,-19.31 -24.37,-33.63 -24.37,-33.63l-25.24 -24.37c0,0 20.02,-2.45 22.95,-20.97 -11.63,12.82 -30.23,14.24 -30.23,14.24l-4.43 -4.51c0,0 35.69,-1.66 37.59,-25.4 -27.7,20.34 -48.74,13.69 -48.74,13.69l-59.35 -56.89 -48.03 48.9 29.75 0 16.62 11.24 -105.88 -0c0,0 -6.17,-0.95 -9.42,1.98 -4.19,3.88 -4.91,7.91 -4.91,7.91l-12.03 69.4 66.15 -52.7 96.93 -12.27 8.31 6.25 -103.42 15.75 -70.43 58 0 164.43 74.54 0c0,0 39.25,1.03 62.99,35.93 22.08,-34.9 61.41,-33.87 61.41,-33.87l75.41 0 0 -139.27c0.08,0 -0.87,-31.65 -6.17,-43.84zm-16.3 155.81l-52.94 0c0,0 -39.33,-1.03 -61.41,27.46 -23.74,-28.49 -62.99,-29.52 -62.99,-29.52l-54.2 0 0 -124 56.97 -58 105.88 -24.21c0,0 38.46,27.3 52.38,45.26 12.03,15.27 16.3,35.13 16.3,35.13l0 127.87z"/>
 </g>
</svg>
