<?xml version="1.0" encoding="UTF-8"?>
<!DOCTYPE svg PUBLIC "-//W3C//DTD SVG 1.1//EN" "http://www.w3.org/Graphics/SVG/1.1/DTD/svg11.dtd">
<!-- Creator: CorelDRAW 2020 (64-Bit) -->
<svg xmlns="http://www.w3.org/2000/svg" xml:space="preserve" width="3.09839in" height="3.09757in" version="1.1" style="shape-rendering:geometricPrecision; text-rendering:geometricPrecision; image-rendering:optimizeQuality; fill-rule:evenodd; clip-rule:evenodd"
viewBox="0 0 11906.36 11903.23"
 xmlns:xlink="http://www.w3.org/1999/xlink"
 xmlns:xodm="http://www.corel.com/coreldraw/odm/2003">
 <defs>
  <style type="text/css">
   <![CDATA[
    .fil0 {fill:#5F5D5E;fill-rule:nonzero}
   ]]>
  </style>
 </defs>
 <g id="Layer_x0020_1">
  <metadata id="CorelCorpID_0Corel-Layer"/>
  <g id="radio-Namayesh.svg">
   <g>
    <circle class="fil0" cx="4911.81" cy="4908.68" r="2726"/>
    <g>
     <path class="fil0" d="M9817.36 4908.67c0,2704.14 -2201.42,4908.67 -4908.69,4908.67 -2707.26,0 -4908.67,-2201.4 -4908.67,-4908.67 0,-2707.27 2201.42,-4908.67 4911.81,-4908.67l0 1348.95c-1960.97,0 -3559.73,1598.76 -3559.73,3559.73 0,1960.97 1598.76,3556.61 3559.73,3556.61 1960.97,0 3556.6,-1595.64 3556.6,-3556.61l1348.96 0z"/>
    </g>
   </g>
   <g>
    <g>
     <path class="fil0" d="M4911.81 10554.28c3113.2,0 5645.61,-2532.41 5645.61,-5645.61l1348.95 0c0,3859.49 -3138.18,6994.55 -6994.55,6994.55l0 -1348.95 0 0z"/>
    </g>
   </g>
  </g>
 </g>
</svg>
