<?xml version="1.0" encoding="UTF-8"?>
<!DOCTYPE svg PUBLIC "-//W3C//DTD SVG 1.1//EN" "http://www.w3.org/Graphics/SVG/1.1/DTD/svg11.dtd">
<!-- Creator: CorelDRAW 2020 (64-Bit) -->
<svg xmlns="http://www.w3.org/2000/svg" xml:space="preserve" width="3.34811in" height="1.8707in" version="1.1" style="shape-rendering:geometricPrecision; text-rendering:geometricPrecision; image-rendering:optimizeQuality; fill-rule:evenodd; clip-rule:evenodd"
viewBox="0 0 1273.19 711.37"
 xmlns:xlink="http://www.w3.org/1999/xlink"
 xmlns:xodm="http://www.corel.com/coreldraw/odm/2003">
 <defs>
  <style type="text/css">
   <![CDATA[
    .fil0 {fill:#5F5D5E;fill-rule:nonzero}
   ]]>
  </style>
 </defs>
 <g id="Layer_x0020_1">
  <metadata id="CorelCorpID_0Corel-Layer"/>
  <g id="radio-payam.svg">
   <g id="XMLID_10_">
    <polygon id="XMLID_8_" class="fil0" points="447.15,553.92 632.83,553.92 879.99,29.17 694.31,29.17 "/>
    <polygon id="XMLID_7_" class="fil0" points="355.24,620.1 445.89,620.1 404.49,709.18 313.84,709.18 "/>
    <polygon id="XMLID_6_" class="fil0" points="512.39,620.1 604.29,620.1 562.57,709.18 470.98,709.18 "/>
    <polygon id="XMLID_5_" class="fil0" points="666.39,620.1 758.29,620.1 716.89,709.18 624.99,709.18 "/>
    <polygon id="XMLID_4_" class="fil0" points="824.79,620.1 915.44,620.1 874.03,709.18 783.07,709.18 "/>
    <polygon id="XMLID_3_" class="fil0" points="980.68,620.1 1072.89,620.1 1030.86,709.18 939.27,709.18 "/>
    <path id="XMLID_2_" class="fil0" d="M205.94 438.81c-39.21,-74.96 -130.17,-275.08 141.46,-264.41l-164.36 378.58 189.76 0 180.04 -397.09 -306.44 0c-413.09,10.04 -198.86,438.49 -123.27,555.49l172.82 -90.96 -21.02 -42.66 -110.72 0 0 0c-1.57,0 -3.45,-0.63 -5.02,-1.25 -5.96,-2.82 -8.78,-9.72 -5.96,-15.68l52.69 -122.01z"/>
    <path id="XMLID_1_" class="fil0" d="M1067.56 272.57c39.21,74.65 130.17,275.08 -141.46,264.41l164.04 -378.58 -189.76 0 -180.04 397.4 306.44 -0c413.09,-10.04 198.86,-438.81 123.27,-555.8l-172.82 90.96 21.02 42.66 110.72 0 0 0.31c1.57,0 3.45,0.31 5.02,0.94 5.96,2.82 8.78,9.72 5.96,15.68l-52.38 122.01z"/>
   </g>
  </g>
 </g>
</svg>
