<?xml version="1.0" encoding="UTF-8"?>
<!DOCTYPE svg PUBLIC "-//W3C//DTD SVG 1.1//EN" "http://www.w3.org/Graphics/SVG/1.1/DTD/svg11.dtd">
<!-- Creator: CorelDRAW 2020 (64-Bit) -->
<svg xmlns="http://www.w3.org/2000/svg" xml:space="preserve" width="2.48236in" height="3.13534in" version="1.1" style="shape-rendering:geometricPrecision; text-rendering:geometricPrecision; image-rendering:optimizeQuality; fill-rule:evenodd; clip-rule:evenodd"
viewBox="0 0 835.74 1055.59"
 xmlns:xlink="http://www.w3.org/1999/xlink"
 xmlns:xodm="http://www.corel.com/coreldraw/odm/2003">
 <defs>
  <style type="text/css">
   <![CDATA[
    .fil0 {fill:#5F5D5E;fill-rule:nonzero}
   ]]>
  </style>
 </defs>
 <g id="Layer_x0020_1">
  <metadata id="CorelCorpID_0Corel-Layer"/>
  <g id="radio-Quran.svg">
   <g>
    <path class="fil0" d="M331.77 756.42c15.12,-7.69 50.13,-29.18 58.35,-42.44l-151.71 -98.66c-18.57,-12.2 -145.34,-93.09 -148.79,-100.52 -2.92,-45.09 36.34,-75.32 66.57,-90.44 63.65,-31.03 88.05,-17.5 101.58,-54.9 18.03,-48.54 31.56,-70.02 62.59,-93.89 16.71,-12.2 30.5,-21.48 44.56,-33.42 43.76,-37.4 62.33,-36.87 104.5,-2.39 50.66,41.38 84.08,51.98 109.01,125.72 15.38,46.15 30.5,22.81 99.19,57.02 28.64,14.06 75.85,50.13 69.49,90.97 -10.61,14.59 -113.78,80.1 -138.45,96.28l-284.85 188.04c-18.03,11.67 -59.14,36.07 -69.49,49.6 -28.38,37.93 -9.81,60.74 2.92,90.97 11.14,-20.95 10.34,-24.4 48.54,-47.74l463.08 -305.54c18.83,-12.2 42.97,-25.73 47.21,-51.98 15.38,-89.91 -68.16,-159.4 -147.73,-187.51 -57.02,-20.42 -21.48,-28.64 -63.65,-79.83 -29.97,-36.07 -125.45,-107.41 -164.7,-123.86 -39.52,-15.91 -84.61,26.26 -130.22,57.82 -156.22,108.48 -64.19,118.56 -141.89,146.4 -66.57,23.6 -128.63,67.1 -144.81,147.2 -13.26,68.16 33.42,84.61 74.26,110.86 32.36,20.95 216.69,146.14 234.46,152.24l0 0z"/>
    <path class="fil0" d="M259.1 1055.59c9.28,-26.26 19.36,-28.38 30.5,-37.4 77.18,-50.13 507.9,-331 526.73,-349.83 32.09,-32.09 18.83,-64.18 0,-96.28 -6.9,15.38 -1.33,18.83 -29.97,37.4 -73.73,46.41 -510.02,332.59 -527,349.83 -32.09,32.62 -18.83,63.65 -0.27,96.28l0 0z"/>
    <path class="fil0" d="M298.62 776.57l-253.55 -173.99c-18.03,-12.46 -18.57,-11.67 -24.4,-34.48 -63.65,84.61 34.48,123.06 95.75,164.7 31.03,21.75 58.88,40.84 90.44,62.33 20.42,13.79 25.2,26.26 45.62,14.06 12.73,-7.69 38.99,-23.6 46.15,-32.62l0 0z"/>
    <path class="fil0" d="M159.91 306.86c13.26,-33.15 1.33,-22.28 50.66,-63.12l60.2 -54.9c16.97,-18.83 44.29,-32.62 57.02,-58.35 15.91,-33.95 2.12,-68.69 -20.42,-84.87 -9.81,23.6 -2.39,16.97 -20.42,36.07 -14.59,14.06 -16.71,15.91 -30.5,27.05 -11.67,9.81 -17.51,18.56 -29.18,28.38 -24.93,20.95 -76.91,61.8 -87.52,85.93 -18.83,40.84 4.77,63.12 20.16,83.81l0 0z"/>
    <path class="fil0" d="M143.2 179.82c15.38,-26.79 -6.36,-10.61 32.09,-41.38 15.38,-13.26 26.79,-20.42 40.31,-33.42 36.34,-34.48 26.26,-70.02 0,-105.03 -15.38,34.48 2.39,15.91 -29.71,42.44 -11.67,9.81 -28.64,21.75 -41.37,32.62 -47.47,40.31 -7.96,90.97 -1.33,104.76l0 0z"/>
   </g>
  </g>
 </g>
</svg>
