<?xml version="1.0" encoding="UTF-8"?>
<!DOCTYPE svg PUBLIC "-//W3C//DTD SVG 1.1//EN" "http://www.w3.org/Graphics/SVG/1.1/DTD/svg11.dtd">
<!-- Creator: CorelDRAW 2020 (64-Bit) -->
<svg xmlns="http://www.w3.org/2000/svg" xml:space="preserve" width="2.98448in" height="2.98448in" version="1.1" style="shape-rendering:geometricPrecision; text-rendering:geometricPrecision; image-rendering:optimizeQuality; fill-rule:evenodd; clip-rule:evenodd"
viewBox="0 0 8020.62 8020.62"
 xmlns:xlink="http://www.w3.org/1999/xlink"
 xmlns:xodm="http://www.corel.com/coreldraw/odm/2003">
 <defs>
  <style type="text/css">
   <![CDATA[
    .fil0 {fill:#5F5D5E;fill-rule:nonzero}
   ]]>
  </style>
 </defs>
 <g id="Layer_x0020_1">
  <metadata id="CorelCorpID_0Corel-Layer"/>
  <g id="radio-Saba.svg">
   <g>
    <path class="fil0" d="M6652.86 5376.15l1367.77 -1365.84 -548.27 -548.27 0 0 -722.63 -722.63 0 0 -1689.38 -1689.38 0 0 -643.21 -639.33 0 0 -406.84 -410.72 -4010.32 4010.32 4010.32 4010.32 2245.39 -2247.33c139.49,-120.12 273.17,-251.86 397.16,-397.16zm-643.2 238.29c-11.63,9.68 -25.18,21.31 -38.75,31 -7.76,5.81 -11.63,9.68 -19.37,15.49 -11.63,9.69 -25.19,19.37 -38.76,29.06 -7.74,5.81 -13.55,9.68 -21.31,15.5 -19.37,15.49 -38.75,29.05 -60.05,44.55 -635.45,461.09 -1373.58,699.38 -2082.65,666.44 -697.46,-31 -1280.6,-323.54 -1642.87,-819.49 -9.69,-13.56 -19.37,-27.13 -29.06,-42.63 -3.87,-3.87 -5.81,-7.74 -7.74,-11.63 -7.76,-9.68 -13.56,-19.37 -19.37,-31 -3.88,-3.87 -5.81,-9.68 -7.76,-13.55 -7.74,-9.69 -13.55,-23.26 -21.31,-32.94 -1.94,-3.88 -3.87,-5.82 -5.81,-9.69 -9.69,-13.56 -17.44,-29.06 -25.18,-44.55 -1.94,-3.88 -3.88,-7.76 -5.81,-9.69 -7.76,-9.68 -11.63,-23.25 -17.44,-32.94 -3.88,-3.87 -5.81,-9.68 -7.76,-13.56 -5.81,-9.68 -9.68,-23.25 -17.43,-30.99 -1.95,-3.88 -3.88,-7.76 -5.82,-11.63 -7.74,-15.5 -13.55,-31 -21.31,-44.55l0 0c-7.74,-15.5 -13.56,-29.06 -19.37,-44.57 -1.94,-3.87 -3.87,-7.74 -5.81,-11.62 -3.87,-9.69 -9.69,-23.26 -13.56,-32.94 -1.94,-3.88 -3.87,-9.69 -5.81,-13.56 -5.81,-11.63 -9.69,-25.18 -13.56,-38.75 -1.94,-3.88 -1.94,-5.82 -3.87,-7.76 -5.82,-15.49 -9.69,-31 -17.44,-46.49 -1.94,-3.88 -1.94,-7.76 -3.88,-9.69 -3.87,-11.62 -7.74,-25.18 -9.68,-38.75 -1.94,-3.87 -3.88,-9.68 -3.88,-13.56 -3.87,-11.63 -7.74,-25.18 -9.68,-38.75 -1.94,-3.87 -3.87,-7.74 -3.87,-9.68 -3.88,-17.44 -7.76,-31 -11.63,-48.44l0 0c-3.88,-17.44 -7.76,-31 -9.69,-48.44 -1.94,-3.87 -1.94,-7.74 -3.87,-11.62 -3.87,-11.63 -5.81,-25.19 -7.74,-38.76 -1.95,-3.87 -1.95,-7.74 -3.88,-11.62 -3.87,-15.5 -5.81,-29.06 -7.74,-44.57 0,-1.94 0,-3.87 -1.94,-3.87 -3.88,-17.44 -3.88,-32.94 -7.76,-52.31 0,-3.87 -1.94,-7.74 -1.94,-9.69 -1.94,-13.55 -3.87,-27.12 -3.87,-42.62 0,-3.87 -1.94,-7.74 -1.94,-13.56 -1.95,-13.56 -3.88,-27.12 -3.88,-40.68 0,-3.88 0,-7.76 -1.94,-9.69 -1.94,-17.44 -3.87,-34.87 -3.87,-52.31l0 0c-1.95,-17.44 -1.95,-32.94 -1.95,-50.37 0,-3.87 0,-9.68 0,-11.62 0,-13.56 0,-27.13 0,-40.69 0,-3.87 0,-7.74 0,-11.62 0,-17.44 0,-32.94 1.95,-50.37l0 -1.94c0,-17.44 1.94,-36.81 3.87,-52.32 0,-3.87 0,-5.81 0,-9.68 1.94,-13.56 1.94,-29.06 3.87,-44.55 0,-3.88 0,-7.76 1.95,-11.63 1.94,-13.56 3.87,-29.06 3.87,-44.55 0,-3.88 0,-5.81 1.94,-7.76 1.94,-17.44 3.87,-36.81 5.81,-54.24 0,0 0,0 0,-1.95 3.88,-17.44 3.88,-32.94 7.76,-52.31 0,-3.87 1.94,-7.74 1.94,-11.62 3.87,-13.56 3.87,-27.13 7.74,-42.63 0,-3.87 1.94,-7.74 1.94,-9.68 5.81,-34.87 11.63,-71.69 21.32,-106.56 0,-3.88 1.94,-7.76 3.87,-9.69 3.87,-13.56 7.74,-29.05 9.68,-44.55 1.95,-3.87 1.95,-9.69 3.88,-11.63 3.87,-15.5 7.74,-29.05 9.68,-44.55 1.95,-3.87 1.95,-5.81 3.88,-9.69 3.87,-17.44 9.68,-36.81 15.49,-54.24 0,-1.95 0,-1.95 1.95,-3.88 3.87,-17.44 9.68,-32.94 15.49,-48.43 1.95,-3.88 3.88,-7.76 3.88,-11.63 3.87,-13.56 9.68,-27.13 13.56,-42.63 1.94,-3.87 3.87,-9.68 3.87,-11.62 11.63,-34.87 25.18,-71.69 38.75,-106.56 1.94,-3.88 3.88,-7.76 3.88,-9.69 5.81,-13.56 9.68,-27.12 17.43,-42.62 1.95,-3.88 3.88,-7.76 5.82,-13.56 5.81,-13.56 11.62,-29.06 17.43,-44.57 1.95,-3.87 3.88,-5.81 3.88,-7.74 9.68,-17.44 15.49,-34.87 25.18,-52.31 1.94,-1.94 1.94,-3.87 3.87,-5.81 7.76,-15.5 13.56,-31 21.32,-44.55 3.87,-3.88 3.87,-9.69 7.74,-13.56 7.74,-11.63 11.63,-27.13 19.37,-38.75 3.87,-3.88 3.87,-7.76 7.74,-11.63 17.44,-32.94 36.81,-67.81 54.25,-100.75 3.88,-3.87 3.88,-7.74 7.76,-11.62 7.74,-11.63 13.55,-25.19 23.25,-38.76 3.87,-3.87 5.81,-9.68 9.68,-13.56 9.69,-13.55 17.44,-25.18 25.19,-40.68 1.94,-3.87 3.87,-7.74 5.81,-9.68 9.68,-17.44 21.31,-32.94 31,-50.37 1.94,-3.88 3.87,-5.81 5.81,-9.69 5.81,-9.68 11.63,-17.44 17.44,-27.12 -1.95,3.87 -3.88,5.81 -3.88,9.68 -3.87,7.76 -7.74,17.44 -9.68,25.19 -3.88,5.81 -3.88,11.62 -7.76,17.43 -3.87,7.76 -7.74,17.44 -9.68,25.19 -3.88,5.81 -3.88,11.62 -7.74,17.44 -3.88,7.74 -7.76,17.43 -9.69,25.18 -1.94,5.81 -3.87,9.68 -5.81,17.44 -3.88,9.68 -7.74,19.37 -9.69,27.12 -1.94,5.81 -3.87,9.69 -5.81,17.44 -3.87,9.68 -7.74,21.31 -9.68,31 -1.95,3.87 -3.88,7.74 -3.88,13.56 -3.87,15.49 -7.74,30.99 -11.62,44.55 0,1.94 0,3.87 -1.95,3.87 -3.87,13.56 -7.74,27.13 -9.68,42.63 -1.94,5.81 -3.88,9.68 -3.88,15.49 -3.87,9.69 -3.87,21.32 -7.74,31 -1.94,5.81 -3.87,11.63 -3.87,17.44 -1.94,9.69 -3.88,17.44 -5.81,27.13 -1.95,7.74 -3.88,11.62 -3.88,19.37 -1.94,7.74 -3.87,17.43 -3.87,25.18 -1.94,7.74 -1.94,13.56 -3.88,19.37 -1.94,7.74 -3.87,17.44 -3.87,25.18 -1.94,7.74 -1.94,13.56 -3.87,21.31 -1.95,7.76 -3.88,17.44 -3.88,25.19 -1.94,7.74 -1.94,13.55 -3.87,21.31 -1.94,9.68 -1.94,17.44 -3.87,27.12 0,7.76 -1.95,11.63 -1.95,19.37 -1.94,9.69 -1.94,19.37 -1.94,29.06 0,5.81 -1.94,11.63 -1.94,17.44 0,9.68 -1.94,21.31 -1.94,30.99 0,5.82 0,9.69 0,15.5 0,15.5 0,31 0,46.5 0,1148.84 1005.48,2082.65 2243.45,2082.65 1236.02,0 2243.44,-933.81 2243.44,-2082.65 0,-9.69 0,-19.37 0,-29.06 0,-3.87 0,-5.81 0,-7.74 0,-7.76 0,-13.56 0,-21.32 0,-3.87 0,-7.74 0,-9.68 0,-7.74 0,-13.56 -1.94,-21.31 0,-3.88 0,-9.69 0,-9.69l0 0c1.94,-3.87 3.88,-5.81 3.88,-9.68 3.87,-5.82 5.81,-11.63 7.74,-17.44 3.87,-9.69 7.74,-17.44 9.68,-25.18 3.88,-5.82 3.88,-11.63 7.76,-17.44 3.87,-9.69 7.74,-17.44 9.68,-25.19 3.88,-5.81 3.88,-11.62 7.76,-17.43 3.87,-9.69 7.74,-17.44 9.68,-27.13 1.94,-5.81 3.88,-9.68 5.81,-17.44 3.88,-9.68 7.76,-19.37 9.69,-27.12 1.94,-5.81 3.87,-9.69 5.81,-17.44 3.87,-9.69 7.74,-19.37 9.69,-29.06 1.94,-5.81 3.87,-9.68 3.87,-15.49 3.87,-9.69 7.74,-23.26 9.69,-32.94 1.94,-3.88 3.87,-7.76 3.87,-11.63 3.87,-15.5 7.74,-31 11.63,-44.55 5.81,-21.31 9.68,-42.63 15.49,-62 1.94,-7.74 3.88,-15.49 5.81,-23.25 3.88,-15.5 7.76,-29.06 9.69,-44.57 1.94,-3.87 3.87,-9.68 3.87,-13.55l478.53 478.52c-1.94,7.74 -1.94,17.44 -3.88,25.18 -1.94,7.76 -1.94,15.5 -3.87,23.26 -1.94,9.68 -3.87,23.25 -3.87,32.94 -1.95,7.74 -1.95,11.62 -3.88,19.37 -1.94,11.62 -3.87,25.18 -5.81,38.75 -1.94,5.81 -1.94,9.68 -3.87,15.49 -5.81,36.81 -11.63,73.62 -21.32,108.5 0,3.87 -1.94,3.87 -1.94,7.74 -3.87,15.5 -7.74,31 -9.68,46.49 -1.94,5.81 -3.88,9.69 -3.88,15.5 -3.87,11.63 -5.81,25.18 -9.68,38.75 -1.94,5.81 -3.88,11.63 -5.81,17.44 -3.88,9.69 -5.81,25.18 -9.69,34.87 -1.94,7.74 -3.87,13.56 -5.81,21.31 -3.87,9.69 -5.81,23.25 -9.69,31 -3.87,7.74 -3.87,15.49 -7.74,23.25 -3.87,9.69 -7.74,21.31 -9.68,31 -3.88,7.74 -5.82,15.5 -9.69,25.18 -3.87,9.69 -7.74,19.37 -9.68,31 -3.88,7.74 -5.82,15.5 -9.69,25.18 -3.87,9.69 -7.74,19.37 -9.69,29.06 -3.87,7.74 -5.81,17.44 -9.68,25.18 -3.87,9.69 -7.74,19.37 -9.69,27.12 -1.94,7.76 -7.74,17.44 -9.68,25.19 -3.88,9.68 -7.74,17.43 -9.69,27.12 -3.87,9.69 -7.74,17.44 -9.68,25.18 -3.88,7.76 -7.76,17.44 -9.69,27.13 -3.87,7.74 -7.74,17.44 -9.68,25.18 -3.88,7.74 -7.76,17.44 -11.63,27.12 -3.87,7.76 -9.69,17.44 -11.63,25.18 -1.94,7.76 -9.68,17.44 -11.62,27.13 -3.88,7.74 -9.69,17.44 -11.63,25.18 -1.94,7.74 -9.69,17.44 -11.63,25.18 -3.87,7.76 -9.68,17.44 -13.56,27.13 -3.87,7.74 -9.68,17.44 -11.63,25.18 -3.87,7.74 -9.68,17.44 -13.55,25.18 -3.88,9.69 -9.69,17.44 -13.56,25.18 -5.81,7.76 -9.69,17.44 -15.5,27.13 -3.87,7.74 -7.74,15.49 -13.56,25.18 -5.81,7.74 -9.68,17.44 -15.5,25.18 -3.87,9.69 -9.68,15.5 -13.56,25.18 -5.81,9.69 -9.68,17.44 -17.43,27.13 -3.88,7.74 -9.69,15.49 -13.56,23.25 -5.81,9.69 -9.69,17.44 -17.44,27.13 -3.88,7.74 -9.69,15.49 -13.56,23.25 -5.81,9.69 -11.63,17.44 -17.44,27.12 -3.87,7.76 -9.68,13.56 -13.56,21.32 -5.81,9.68 -11.63,17.44 -17.44,27.12 -3.87,7.74 -9.68,13.56 -15.49,21.31 -7.76,9.69 -11.63,17.44 -19.37,27.13 -3.88,7.74 -9.69,13.56 -15.5,21.31 -7.76,9.69 -13.56,17.44 -21.31,27.12 -3.88,7.76 -9.69,11.63 -13.56,19.37 -7.76,9.69 -13.56,19.38 -23.26,29.06 -3.87,3.87 -7.74,9.69 -9.68,13.56 -13.56,17.44 -27.13,36.81 -44.57,54.25 -7.74,7.74 -13.55,17.44 -19.37,25.18 -5.81,7.74 -9.68,13.56 -17.44,21.31 -7.74,7.76 -13.55,17.44 -21.31,25.18l-383.6 383.6c-9.68,9.69 -23.25,19.37 -34.86,29.06 -11.6,-15.42 -17.4,-7.66 -25.15,-1.85zm187.92 -1443.33c-1.94,3.87 -1.94,7.74 -3.88,9.68 -3.87,9.69 -7.74,19.37 -9.68,29.06 -1.94,3.87 -3.87,7.74 -3.87,13.56 -3.88,7.74 -5.82,17.44 -9.69,25.18 -1.94,3.87 -3.87,9.68 -5.81,13.56 -3.87,9.68 -7.74,17.44 -9.69,27.12 -1.94,3.88 -3.87,7.76 -5.81,11.63 -3.87,9.68 -9.68,21.31 -13.56,31 -1.94,1.94 -1.94,3.87 -3.87,5.81 -5.81,11.63 -9.69,25.18 -17.44,38.75 -1.94,3.87 -3.87,7.74 -5.81,11.63 -3.87,9.68 -9.69,17.44 -11.63,25.18 -3.87,3.87 -3.87,9.68 -7.74,13.56 -3.88,7.74 -7.76,15.5 -9.69,23.25 -3.87,5.81 -5.81,9.69 -7.74,15.5 -3.87,7.74 -9.69,15.5 -11.63,23.25 -3.87,3.88 -5.81,7.76 -7.74,13.56 -5.81,9.69 -9.69,19.37 -17.44,29.06 -1.94,3.87 -3.87,5.81 -5.81,7.74 -7.74,9.69 -11.63,21.32 -19.37,31 -3.88,3.87 -5.81,9.69 -7.76,11.63 -3.87,7.74 -9.68,13.56 -13.55,21.31 -3.88,3.87 -7.76,9.69 -9.69,13.56 -3.87,7.74 -7.74,13.56 -13.56,19.37 -3.87,3.87 -7.74,9.69 -9.68,13.56 -3.88,7.74 -9.69,13.56 -13.56,21.31 -3.88,3.88 -7.76,9.69 -9.69,11.63 -7.74,9.68 -13.56,17.44 -21.31,27.12 -3.87,3.88 -5.81,7.76 -9.69,9.69 -7.74,7.74 -11.62,17.44 -19.37,25.18 -3.87,3.87 -7.74,7.74 -9.68,11.63 -5.81,7.74 -9.69,11.62 -15.5,19.37 -3.87,3.87 -9.68,9.68 -9.68,13.56 -5.82,5.81 -9.69,11.62 -15.5,17.44 -3.88,3.87 -9.69,7.74 -11.63,13.56 -5.81,5.81 -9.68,11.62 -17.44,17.43 -3.87,3.88 -7.74,7.76 -9.68,11.63 -9.69,9.69 -17.44,19.37 -27.13,27.13 -3.87,3.87 -5.81,5.81 -9.68,7.74 -7.76,7.74 -13.56,13.56 -21.31,21.31 -3.88,3.87 -7.76,7.74 -11.63,11.63 -5.81,5.81 -9.69,9.68 -17.44,17.44 -3.87,3.87 -9.69,7.74 -13.56,11.62 -5.81,5.82 -11.63,9.69 -17.44,15.5 -3.87,3.87 -9.68,7.74 -13.56,11.63 -7.74,5.81 -11.62,9.68 -19.37,17.44 -3.87,3.87 -9.68,7.74 -11.63,9.68 -9.68,7.76 -21.31,17.44 -30.99,25.18 -3.88,3.88 -7.76,5.82 -9.69,7.76 -9.68,5.81 -15.5,11.63 -25.18,17.44 -3.87,3.87 -9.69,7.74 -13.56,9.68 -7.74,5.81 -13.56,9.69 -21.31,15.5 -3.88,3.87 -9.69,7.74 -13.56,9.68 -7.74,3.88 -13.56,9.69 -21.31,13.56 -3.88,3.88 -9.69,7.76 -13.56,9.69 -7.76,5.81 -15.5,9.68 -25.19,15.5 -3.87,3.87 -9.68,5.81 -11.62,7.74 -9.69,7.74 -25.18,15.5 -34.87,23.25 -3.87,3.88 -7.74,3.88 -9.69,7.76 -7.74,5.81 -17.43,9.68 -25.18,15.49 -3.87,3.88 -9.68,5.81 -13.56,7.76 -7.74,3.87 -15.49,7.74 -23.25,11.62 -5.81,3.88 -9.69,5.82 -15.5,7.76 -7.74,3.87 -15.49,7.74 -25.18,11.62 -5.81,3.88 -9.68,5.82 -15.5,9.69 -9.68,3.87 -17.44,9.69 -27.12,13.56 -3.87,1.94 -7.74,3.87 -9.69,5.81 -11.62,5.81 -25.18,11.63 -38.75,17.44 -3.87,1.94 -9.68,3.87 -9.68,5.81 -9.69,3.87 -17.44,7.74 -27.13,11.63 -5.81,3.87 -9.68,3.87 -15.49,7.74 -7.76,3.88 -17.44,7.74 -25.19,9.69 -5.81,3.87 -9.68,3.87 -15.49,7.74 -9.69,3.87 -17.44,7.74 -25.18,9.69 -5.82,1.94 -9.69,3.87 -15.5,5.81 -9.69,3.87 -21.31,7.74 -31,9.68 -3.87,1.94 -7.74,3.88 -9.68,3.88 -13.56,5.81 -27.13,9.68 -40.69,13.56 -3.87,1.94 -7.74,3.87 -11.62,3.87 -9.69,3.87 -19.38,7.74 -29.06,9.68 -5.81,1.95 -9.69,3.88 -15.5,3.88 -9.68,3.87 -17.44,5.81 -27.12,7.74 -5.81,1.94 -9.69,3.88 -17.44,3.88 -9.69,3.87 -17.44,5.81 -27.12,7.74 -5.82,1.94 -9.69,3.87 -15.5,3.87 -9.69,3.88 -25.18,5.81 -34.87,7.76 -3.87,0 -5.81,1.94 -7.74,1.94 -13.56,3.87 -29.06,7.74 -44.55,9.68 -3.88,1.94 -7.76,1.94 -11.63,3.88 -9.69,3.87 -21.31,3.87 -31,5.81 -5.81,1.94 -9.68,1.94 -17.44,3.87 -9.68,1.94 -19.37,3.88 -29.05,5.81 -5.82,1.95 -9.69,1.95 -17.44,3.88 -9.69,1.94 -19.37,3.87 -31,3.87 -5.81,1.94 -9.69,1.94 -15.5,3.88 -13.56,1.94 -27.12,3.87 -40.68,5.81 -1.94,0 -3.87,0 -3.87,0 -15.5,1.94 -31,3.87 -44.57,3.87 -3.87,0 -9.68,1.94 -13.56,1.94 -9.68,1.94 -21.31,1.94 -30.99,3.88 -5.82,0 -9.69,1.94 -17.44,1.94 -9.69,0 -19.37,1.94 -31,1.94 -5.81,0 -9.69,0 -17.44,1.94 -9.68,0 -21.31,1.94 -31,1.94 -5.81,0 -9.68,0 -15.49,0 -15.5,0 -31,0 -44.57,0 -1081.04,0 -1960.6,-807.87 -1960.6,-1801.73 0,-15.5 0,-29.06 0,-44.57 0,-3.87 0,-9.68 0,-13.56 0,-9.68 1.94,-21.31 1.94,-30.99 0,-5.82 0,-9.69 1.94,-15.5 0,-9.69 1.94,-19.37 3.87,-29.06 0,-5.81 1.95,-9.68 1.95,-15.49 1.94,-11.63 3.87,-25.19 3.87,-36.81 0,-3.88 0,-5.81 1.94,-9.69 1.94,-13.56 3.88,-29.05 5.81,-44.55 0,-3.87 1.95,-7.74 1.95,-11.63 1.94,-9.68 3.87,-21.31 5.81,-31 1.94,-5.81 1.94,-9.68 3.87,-15.49 1.94,-9.69 3.87,-19.37 5.81,-29.06 1.94,-5.81 1.94,-9.68 3.88,-15.5 3.87,-9.68 3.87,-21.31 7.74,-30.99 1.94,-3.88 1.94,-7.76 3.87,-9.69 3.88,-13.56 7.76,-27.12 9.69,-42.62 1.94,-3.88 1.94,-5.82 3.87,-7.76 3.88,-9.68 5.81,-23.25 9.69,-32.94 1.94,-3.87 3.87,-9.68 3.87,-13.56 3.88,-9.68 5.81,-17.43 7.74,-27.12 1.95,-5.81 3.88,-9.69 3.88,-15.5 3.87,-9.68 7.74,-19.37 9.68,-29.05 1.95,-3.88 3.88,-7.76 3.88,-11.63 5.81,-13.56 9.68,-27.12 15.49,-40.68 0,-1.94 1.95,-3.88 1.95,-3.88 3.87,-11.62 9.68,-25.18 15.49,-36.81 1.95,-3.87 3.88,-9.68 5.81,-13.56 3.88,-7.74 9.69,-17.43 9.69,-25.18 3.87,-5.81 3.87,-9.68 7.74,-15.49 3.88,-7.76 7.76,-17.44 11.63,-25.19 1.94,-3.87 3.87,-7.74 3.87,-9.68 50.37,949.3 643.21,1764.93 1516.95,1997.41 794.32,211.18 1627.38,-106.55 2160.15,-773 -13.59,19.35 -13.59,19.35 -13.59,19.35zm1073.3 189.86c1.94,-3.87 3.87,-9.68 5.81,-13.56 5.81,-15.49 11.62,-30.99 17.44,-46.49 3.87,-7.74 5.81,-15.5 9.68,-25.18 3.88,-13.56 9.69,-25.18 13.56,-40.69 3.87,-9.68 5.81,-17.43 9.69,-27.12 3.87,-11.63 7.74,-25.18 11.62,-38.75 3.88,-7.74 5.81,-17.44 9.69,-27.13 3.87,-11.62 7.74,-25.18 9.68,-38.75 3.88,-7.74 5.82,-17.44 7.76,-25.18 3.87,-13.56 7.74,-27.12 9.68,-40.68 3.88,-7.76 3.88,-15.5 7.76,-25.18 3.87,-15.5 9.68,-31 11.62,-46.5 1.95,-5.81 3.88,-9.68 3.88,-17.44 5.81,-21.31 9.68,-44.55 13.56,-63.93 1.94,-5.81 3.87,-11.63 3.87,-17.44 3.87,-15.5 7.74,-31 9.69,-44.55 0,-1.94 1.94,-3.88 1.94,-5.81l193.73 193.73 -350.66 350.65zm-813.69 -1516.95c0,3.87 -1.94,5.81 -1.94,7.74 -3.88,25.18 -5.81,44.57 -9.69,69.75 0,1.94 0,3.88 0,3.88 -3.87,23.25 -7.74,44.55 -9.68,67.8 0,3.88 -1.94,7.76 -1.94,9.69 -46.5,-127.87 -106.56,-247.99 -178.24,-362.29l201.48 203.42zm-191.79 683.89c-404.92,887.3 -1303.84,1367.77 -2152.41,1141.09 -877.61,-232.49 -1427.83,-1154.66 -1292.22,-2158.21 373.91,-401.03 914.44,-629.64 1489.83,-629.64 1017.11,0 1869.55,718.76 1954.8,1646.76zm-1954.8 -1929.61c-263.48,0 -521.14,42.62 -761.37,123.98l0 0c25.18,-11.62 48.44,-25.18 73.62,-38.75 7.74,-3.87 13.56,-7.74 21.31,-9.68 21.31,-9.69 42.63,-21.31 62,-31 3.87,-3.87 9.68,-3.87 13.56,-7.74 25.18,-9.69 50.36,-23.26 75.56,-32.94 7.74,-3.88 11.62,-5.81 19.37,-7.76 21.31,-9.68 40.68,-17.43 61.99,-25.18 5.81,-3.87 11.63,-5.81 17.44,-7.74 25.18,-9.69 50.37,-19.37 75.56,-29.06 5.81,-1.94 9.69,-3.87 17.44,-5.81 21.31,-7.74 42.62,-15.5 62,-23.25 7.74,-3.88 13.55,-3.88 21.31,-7.76 25.18,-7.74 52.31,-17.44 77.49,-25.18 3.87,-1.94 5.81,-1.94 9.69,-3.87 25.18,-7.76 44.55,-13.56 69.75,-21.32 7.74,-1.94 13.55,-3.87 21.31,-5.81 25.18,-7.74 46.49,-11.62 73.62,-19.37 3.87,0 3.87,-1.94 7.74,-1.94 27.12,-7.74 52.31,-11.63 77.49,-17.44 7.76,-1.94 13.56,-3.87 21.31,-3.87 23.26,-3.88 44.57,-9.69 65.87,-13.56 5.81,-1.94 9.69,-1.94 15.5,-3.88 27.12,-3.87 52.31,-9.68 77.49,-13.55 5.81,-1.95 11.63,-1.95 17.44,-3.88 21.31,-3.87 42.62,-7.74 63.93,-9.68 7.74,-1.95 11.63,-1.95 19.37,-3.88 27.13,-3.87 52.31,-7.74 77.49,-7.74 5.82,0 9.69,-1.94 15.5,-1.94 23.26,-1.94 44.55,-3.88 65.87,-5.81 7.74,0 13.56,-1.95 21.31,-1.95 27.12,-1.94 52.31,-3.87 77.49,-3.87l1.94 0.01 623.84 629.63c-360.35,-224.73 -796.26,-358.4 -1261.23,-358.4zm368.11 -525.02c-29.06,3.87 -60.07,7.74 -89.12,9.68 -5.81,1.95 -9.69,1.95 -17.44,3.88 -25.18,3.87 -52.31,7.74 -77.49,11.63 -5.82,1.94 -11.63,3.87 -17.44,3.87 -29.06,5.81 -60.07,9.68 -87.18,17.44 -7.74,1.94 -11.63,3.87 -19.37,3.87 -25.18,5.81 -50.37,9.69 -75.56,17.44 -5.81,1.94 -11.63,3.87 -17.44,3.87 -29.06,7.76 -60.05,13.56 -87.18,23.26 -7.74,1.94 -11.63,3.87 -19.37,5.81 -25.18,7.74 -50.37,13.56 -75.56,21.31 -5.81,1.94 -9.69,3.88 -17.44,5.81 -29.05,7.76 -58.12,17.44 -87.18,27.13 -7.74,3.87 -13.56,3.87 -21.31,7.74 -25.18,7.74 -48.44,17.44 -73.62,25.18 -5.81,1.95 -9.68,3.88 -17.44,5.82 -27.12,9.68 -58.12,21.31 -85.24,30.99 -7.76,3.88 -13.56,5.81 -21.31,7.76 -25.19,9.68 -48.44,19.37 -73.62,30.99 -5.81,3.88 -9.69,3.88 -15.5,7.76 -27.12,11.62 -56.18,25.18 -83.3,38.75 -7.76,3.87 -13.56,7.74 -21.32,9.68 -25.18,9.69 -48.43,25.19 -73.62,34.87 -3.87,3.88 -9.68,3.88 -13.55,7.74 -27.13,13.56 -56.18,27.13 -81.37,42.63 -7.74,3.87 -11.63,7.74 -19.37,9.69 -25.18,11.62 -48.44,25.18 -73.62,40.68 -3.87,3.87 -7.74,3.87 -11.63,7.74 -27.12,15.5 -54.25,31 -79.43,46.5 -7.76,3.87 -11.63,7.74 -19.37,9.68 -25.18,15.5 -48.44,31 -73.62,44.55 -3.87,1.95 -3.87,3.88 -7.74,3.88 5.81,-7.76 9.68,-17.44 15.49,-25.18 3.88,-3.88 3.88,-9.69 7.76,-9.69 9.68,-17.44 23.25,-34.87 32.94,-52.31 3.87,-3.87 3.87,-7.74 7.74,-9.68 9.68,-13.56 19.37,-27.13 29.05,-42.63 3.88,-3.87 7.76,-9.69 9.69,-13.56 9.69,-13.56 21.31,-29.05 31,-42.62 1.94,-3.88 3.87,-3.88 3.87,-7.76 11.63,-17.44 25.18,-31 38.75,-48.43 3.88,-3.88 5.81,-7.76 9.69,-9.69 9.68,-11.63 21.31,-25.18 31,-38.75 3.87,-3.87 7.74,-7.74 9.68,-9.69 27.13,-30.99 54.25,-60.05 83.31,-91.06 3.87,-3.87 7.74,-7.74 9.68,-9.68 9.69,-9.69 25.18,-25.18 34.87,-34.87 3.87,-3.87 7.74,-7.74 9.68,-9.69 15.5,-13.55 29.06,-27.12 44.57,-42.62 1.94,-1.94 3.87,-1.94 3.87,-3.87 13.56,-11.63 27.12,-25.19 42.63,-36.81 3.87,-3.88 7.74,-7.76 9.68,-9.69 11.63,-9.68 27.12,-21.31 38.75,-31 3.88,-3.87 5.81,-3.87 7.76,-7.74 15.49,-11.63 30.99,-25.18 48.43,-36.81 3.88,-1.94 5.81,-3.87 9.69,-5.81 13.56,-9.69 27.12,-19.37 42.62,-29.06 3.88,-3.87 7.76,-5.81 11.63,-7.74 15.5,-9.69 31,-19.37 44.55,-29.06 1.94,-1.94 3.88,-3.87 5.81,-3.87 17.44,-9.69 34.87,-21.31 52.31,-31 3.88,-3.87 7.76,-3.87 9.69,-7.74 13.56,-9.69 27.12,-15.5 42.62,-25.18 3.88,-3.88 9.69,-3.88 11.63,-7.76 34.87,-17.44 71.68,-36.81 108.49,-52.31 3.88,-3.87 9.69,-3.87 13.56,-5.81 13.56,-7.74 27.13,-11.63 44.55,-17.44 3.88,-1.94 7.76,-3.87 13.56,-5.81 17.44,-7.74 36.81,-13.56 56.18,-21.31 3.88,-1.94 3.88,-1.94 7.76,-3.88 17.44,-5.81 30.99,-9.68 48.43,-17.43 5.81,-1.95 9.69,-3.88 17.44,-5.82 15.5,-3.87 29.06,-9.68 44.55,-13.55 3.88,-1.95 9.69,-3.88 11.63,-3.88 17.44,-3.87 34.87,-9.68 52.31,-13.56l356.46 356.49c-9.68,7.74 -11.62,7.74 -11.62,7.74zm-668.39 -672.26l92.99 92.99c-15.5,5.81 -31,9.69 -44.55,15.5 -3.88,1.94 -3.88,1.94 -7.76,3.87 -19.37,7.76 -40.68,15.5 -60.05,23.26 -3.87,1.94 -5.81,3.87 -9.69,3.87 -19.37,9.69 -40.68,17.44 -60.05,25.18 -3.87,1.94 -9.68,3.88 -11.63,5.81 -19.37,9.69 -38.75,17.44 -60.05,27.13 -3.87,1.94 -7.74,3.87 -9.69,5.81 -17.43,9.69 -38.75,17.44 -56.18,27.12 -3.87,1.95 -5.81,1.95 -7.74,3.88 0,0 0,0 -1.94,0l236.36 -234.42zm-3613.16 3611.23l2439.13 -2439.12c-3.88,5.81 -5.82,9.68 -9.69,15.49 -3.87,5.81 -7.74,11.63 -9.69,17.44 -9.68,17.44 -17.43,34.87 -27.12,52.31 -3.87,3.88 -3.87,7.74 -7.74,11.63 -9.69,21.31 -21.32,44.55 -31,63.93 -3.87,5.81 -3.87,9.69 -7.74,17.44 -7.76,17.44 -15.5,32.94 -23.26,50.37 -3.87,7.74 -5.81,13.56 -9.68,19.37 -7.76,19.37 -15.5,38.75 -25.19,60.05 -1.94,1.95 -3.87,3.88 -3.87,7.76 -7.74,23.25 -17.44,44.55 -25.18,67.8 -3.88,7.76 -3.88,11.63 -7.74,19.37 -3.88,9.69 -5.82,17.44 -9.69,27.13l0 0 0 0c-5.81,3.87 -9.69,9.68 -17.44,15.5 -7.74,5.81 -11.63,9.68 -19.37,17.43 -11.63,9.69 -25.18,23.26 -36.81,32.94 -5.81,5.82 -9.68,9.69 -17.44,15.5 -17.44,15.5 -32.94,31 -50.37,46.5 0,0 0,0 -1.94,0 -17.44,17.43 -32.94,32.94 -50.37,48.43 -3.87,3.88 -9.68,9.69 -13.56,13.56 -9.68,9.69 -25.18,25.18 -34.86,34.87 -5.81,5.81 -9.69,9.68 -17.44,17.44 -9.69,9.68 -21.31,23.25 -31,32.94 -5.81,5.81 -9.68,9.68 -17.44,17.44 -9.68,11.62 -23.25,25.18 -32.94,36.81 -3.87,3.87 -9.68,9.68 -11.63,13.55 -30.99,34.87 -60.05,69.75 -89.12,104.62 -3.87,3.87 -9.68,9.69 -9.68,13.56 -9.69,11.63 -21.31,25.18 -31,38.75 -3.87,5.81 -9.68,9.69 -13.56,17.44 -9.68,11.63 -19.37,25.18 -27.12,38.75 -3.88,5.81 -7.74,9.69 -11.63,17.44 -9.68,13.56 -19.37,27.12 -31,40.68 -3.87,3.88 -7.74,9.69 -9.68,11.63 -25.18,36.81 -52.31,73.62 -77.49,110.43 -3.88,3.88 -5.82,9.69 -9.69,13.56 -9.68,13.56 -17.44,27.13 -25.18,42.63 -3.88,5.81 -7.76,9.68 -9.69,17.44 -9.68,13.55 -17.44,25.18 -25.18,40.68 -3.87,5.81 -7.74,9.68 -9.68,17.44 -9.69,15.49 -17.44,31 -27.13,44.55 -3.87,3.87 -3.87,7.74 -7.74,9.69 -23.26,38.75 -44.55,77.49 -63.94,116.24 -3.87,3.87 -3.87,9.68 -7.74,11.63 -9.68,15.49 -15.5,29.05 -23.25,44.55 -3.88,5.81 -5.81,9.68 -9.69,17.44 -7.74,13.56 -13.56,29.05 -21.31,44.55 -3.87,5.81 -3.87,9.69 -7.74,15.5 -7.76,17.44 -15.5,32.94 -23.26,48.43 -1.94,3.88 -3.87,5.82 -3.87,9.69 -17.44,38.75 -34.87,79.43 -50.37,118.17 -1.94,3.88 -3.87,9.69 -5.81,11.63 -5.81,15.5 -11.63,31 -17.44,44.55 -1.94,5.82 -3.88,9.69 -5.81,15.5 -5.81,15.5 -9.69,31 -17.44,44.55 -1.94,3.88 -3.88,9.69 -5.81,13.56 -5.81,17.44 -11.63,34.87 -17.44,52.31 0,1.95 -1.94,3.88 -1.94,5.82 -11.63,40.68 -25.19,79.43 -36.81,122.05 -1.94,3.87 -3.88,7.74 -3.88,11.63 -3.87,15.49 -7.74,31 -11.62,46.49 -1.95,5.81 -3.88,9.69 -3.88,15.5 -3.87,15.5 -7.74,31 -9.68,44.55 -1.94,3.88 -3.88,9.69 -3.88,13.56 -3.87,17.44 -7.74,36.81 -11.62,54.25 0,1.94 -1.95,3.87 -1.95,5.81 -7.74,40.68 -15.49,79.43 -23.25,122.06 -1.94,3.87 -1.94,7.74 -1.94,11.62 -3.88,15.5 -3.88,31 -7.76,44.57 -1.94,5.81 -1.94,9.68 -3.87,15.49 -1.94,15.5 -3.87,31 -5.81,44.57 0,3.87 -1.94,9.68 -1.94,13.55 -1.94,17.44 -3.88,36.81 -5.81,54.25 0,1.94 0,3.88 0,3.88 -1.95,21.31 -3.88,40.68 -5.82,60.05 0,1.94 0,3.87 0,3.87 -1.94,17.44 -3.87,36.81 -3.87,56.18 0,3.88 0,9.69 0,13.56 0,15.5 -1.94,29.06 -1.94,44.57 0,5.81 0,9.68 0,17.43 0,15.5 0,29.06 0,44.57 0,5.81 0,9.68 0,15.49 0,17.44 0,34.87 1.94,52.31 0,1.95 0,3.88 0,5.82 0,19.37 1.94,40.68 3.87,60.05 0,3.87 0,5.81 0,7.74 1.95,17.44 1.95,32.94 3.88,50.37 0,5.81 1.94,9.69 1.94,17.44 1.94,13.56 3.87,27.12 3.87,42.63 0,5.81 1.95,11.62 1.95,17.43 1.94,13.56 3.87,27.13 3.87,40.69 1.94,5.81 1.94,9.68 3.87,17.44 3.88,17.43 3.88,30.99 7.76,48.43 0,3.88 1.94,5.81 1.94,9.69 3.87,19.37 7.74,38.75 9.68,58.12 1.95,3.87 1.95,7.74 3.88,11.63 3.87,13.56 5.81,29.05 7.74,44.55 1.94,5.81 3.87,11.63 3.87,17.44 3.88,11.63 5.82,25.18 9.69,38.75 1.94,7.74 3.87,11.63 3.87,19.37 3.88,11.63 5.82,25.18 9.69,36.81 1.94,5.81 3.87,11.63 5.81,17.44 3.87,15.49 7.74,29.05 11.63,44.55 1.94,3.87 1.94,7.74 3.87,9.69 5.81,17.43 9.69,36.81 17.44,52.31 1.94,5.81 3.87,9.68 5.81,15.49 3.88,9.69 7.76,19.37 9.69,29.06l-1183.73 -1172.07zm3613.16 3611.23l-1086.86 -1086.86c17.44,7.76 36.81,11.63 54.25,19.38 5.81,1.94 9.69,3.87 15.5,5.81 13.56,3.87 29.05,9.68 44.55,13.56 5.81,1.94 11.63,3.87 17.44,5.81 15.5,3.87 31,9.68 46.49,13.56 3.88,1.94 7.76,3.87 9.69,3.87 19.37,5.81 38.75,9.69 60.05,15.5 5.81,1.94 11.63,3.87 17.44,3.87 13.56,3.87 27.13,7.74 44.55,9.69 7.76,1.94 13.56,3.87 21.32,3.87 17.44,3.87 32.94,7.74 50.37,9.69 3.87,1.94 7.74,1.94 9.68,3.87 19.37,3.87 40.68,7.74 60.05,9.68 7.76,1.95 11.63,3.88 19.38,3.88 15.49,3.87 29.05,3.87 44.55,7.74 7.74,1.94 13.56,1.94 21.31,3.88 17.44,3.87 38.75,5.81 56.18,7.74 3.87,0 3.87,0 7.74,1.94 21.32,3.87 42.63,3.87 62,7.74 7.74,0 11.63,1.95 19.37,1.95 15.5,1.94 31,3.87 46.5,3.87 7.74,0 11.62,1.94 19.37,1.94 23.25,1.94 44.55,3.88 65.86,3.88 27.13,1.94 54.25,1.94 79.44,3.87 9.68,0 25.18,0 34.86,0 9.69,0 17.44,0 27.13,0 5.81,0 11.62,0 17.44,0 11.62,0 25.18,0 38.75,0 13.56,0 29.05,-1.94 44.55,-1.94 23.25,-1.94 44.55,-1.94 65.86,-3.88 13.56,-1.94 27.13,-1.94 42.63,-3.87 15.5,-1.94 31,-3.87 44.55,-3.87 9.69,-1.95 25.18,-1.95 34.87,-3.88 15.5,-1.94 31,-3.87 44.55,-3.87 9.69,-1.94 23.26,-3.88 34.87,-3.88 25.18,-3.87 52.31,-5.81 77.49,-9.68 11.63,-1.94 25.18,-3.87 38.75,-5.81 13.56,-3.88 29.06,-3.88 44.57,-7.76 11.62,-3.87 25.18,-3.87 38.75,-7.74 13.56,-3.87 27.12,-3.87 40.68,-7.74 17.44,-3.88 32.94,-7.76 52.31,-9.69 17.44,-3.87 31,-7.74 48.44,-9.68 17.44,-3.88 36.81,-9.69 56.18,-11.63 9.68,-3.87 23.25,-5.81 32.94,-9.69 17.44,-3.87 34.87,-7.74 52.31,-13.55 9.68,-3.88 19.37,-5.82 29.05,-9.69 27.13,-7.74 52.31,-15.5 79.44,-23.25 3.87,-1.95 7.74,-3.88 9.68,-3.88 25.19,-7.74 46.5,-15.5 71.68,-23.25 7.76,-3.88 15.5,-5.81 23.26,-7.76 23.25,-7.74 44.55,-15.49 65.86,-23.25 5.82,-1.94 9.69,-3.87 17.44,-5.81 27.13,-9.69 56.18,-21.31 83.31,-31 1.94,-1.94 3.87,-1.94 5.81,-3.87 25.18,-9.69 50.37,-19.37 75.56,-31 3.87,-1.94 5.81,-3.88 9.68,-3.88l-1189.51 1205.04z"/>
    <circle class="fil0" cx="5416.83" cy="3109.44" r="168.55"/>
    <circle class="fil0" cx="3671.27" cy="3109.44" r="168.55"/>
   </g>
  </g>
 </g>
</svg>
