<?xml version="1.0" encoding="UTF-8"?>
<!DOCTYPE svg PUBLIC "-//W3C//DTD SVG 1.1//EN" "http://www.w3.org/Graphics/SVG/1.1/DTD/svg11.dtd">
<!-- Creator: CorelDRAW 2020 (64-Bit) -->
<svg xmlns="http://www.w3.org/2000/svg" xml:space="preserve" width="2.95557in" height="2.52425in" version="1.1" style="shape-rendering:geometricPrecision; text-rendering:geometricPrecision; image-rendering:optimizeQuality; fill-rule:evenodd; clip-rule:evenodd"
viewBox="0 0 1131.17 966.1"
 xmlns:xlink="http://www.w3.org/1999/xlink"
 xmlns:xodm="http://www.corel.com/coreldraw/odm/2003">
 <defs>
  <style type="text/css">
   <![CDATA[
    .fil0 {fill:#5F5D5E;fill-rule:nonzero}
   ]]>
  </style>
 </defs>
 <g id="Layer_x0020_1">
  <metadata id="CorelCorpID_0Corel-Layer"/>
  <path id="radio-Salamat.svg" class="fil0" d="M550.48 381.21c-5.4,-12.22 -9.95,-22.46 -14.5,-32.41 -23.59,-49.18 -51.74,-95.51 -85.57,-138.16 -13.36,-17.06 -21.89,-36.67 -28.71,-57.14 -6.54,-20.18 12.79,-48.9 34.4,-52.31 11.09,-1.71 21.6,-2.84 31.84,-8.53 12.79,-7.11 25.3,-0.57 32.41,12.79 32.12,59.98 64.25,119.96 96.37,180.23 0.28,0.28 0.85,0.57 1.99,1.71 0.28,-3.69 0.57,-6.54 0.57,-9.38 -0.85,-67.94 21.89,-128.49 59.13,-183.92 22.17,-32.97 49.46,-60.83 85.28,-79.31 13.93,-7.11 28.14,-13.08 44.91,-14.78 1.14,9.95 2.84,19.9 3.41,29.56 1.14,23.31 3.13,46.62 2.84,69.93 -0.57,36.39 -5.4,72.2 -17.91,106.6 -16.49,45.77 -48.33,78.74 -87.84,105.46 -18.48,12.51 -36.95,24.73 -55.15,36.96 -7.68,5.12 -7.68,6.82 -1.71,14.78 13.08,-4.83 26.15,-9.66 39.51,-14.5 27.57,-9.95 56,-15.92 85.28,-18.76 42.36,-3.98 83.57,0.57 123.66,14.21 59.98,20.47 107.45,57.99 145.55,108.02 33.54,44.06 54.58,94.09 68.79,147.25 5.69,21.32 10.23,42.93 14.78,64.53 4.83,21.6 -3.7,38.66 -18.76,53.16 -25.02,24.45 -54.3,42.64 -85.85,57.42 -56.57,26.44 -116.55,40.08 -177.95,49.18 -28.14,4.26 -56.57,6.54 -84.71,8.81 -12.51,1.14 -25.3,0.85 -37.81,-0.57 -28.14,-2.84 -48.61,8.24 -63.68,31.27 -11.66,17.91 -22.46,36.39 -34.4,54.29 -11.09,16.2 -23.88,30.99 -41.79,40.08 -15.35,7.96 -31.84,10.52 -48.9,6.54 -18.76,-4.26 -31.27,-19.05 -32.12,-38.38 -0.57,-14.78 4.55,-28.14 11.66,-40.93 3.98,-7.39 7.11,-15.35 11.37,-24.73 -7.11,0.85 -11.66,1.42 -16.2,1.71 -23.88,1.99 -44.91,-5.4 -63.68,-20.18 -3.98,-3.13 -6.25,-3.41 -10.23,0 -12.79,11.37 -27.29,19.9 -44.91,19.9 -24.45,0.28 -40.94,-13.08 -54.58,-31.56 -15.07,-20.18 -21.89,-43.21 -21.32,-68.22 0,-1.99 0,-3.98 0,-5.97 0,-0.57 -0.28,-1.42 -0.85,-2.84 -5.69,1.14 -11.09,2.27 -16.77,3.41 -45.77,7.39 -91.53,8.53 -137.59,7.39 -32.69,-0.85 -64.81,-5.69 -95.23,-19.61 -20.47,-9.38 -37.81,-22.46 -50.03,-41.5 -14.21,-22.17 -19.05,-46.62 -12.79,-72.2 13.93,-57.99 34.11,-113.71 67.66,-163.46 32.12,-47.47 73.06,-85.28 124.79,-110.3 30.98,-14.78 63.68,-23.88 98.07,-27.01 52.87,-5.12 103.76,3.7 152.94,22.46 28.43,10.8 56.85,21.89 86.99,26.72 4.83,1.14 9.95,1.42 17.34,2.27zm-1.71 444.88c2.56,24.73 1.71,48.33 -11.94,70.22 -3.98,6.25 -6.82,13.65 -8.81,20.75 -3.69,15.07 4.55,25.87 20.18,25.58 6.82,0 14.21,-1.14 20.75,-3.41 17.91,-6.82 29.56,-21.32 39.8,-36.39 9.66,-14.21 18.48,-29.28 27.29,-44.06 21.61,-36.1 51.74,-54.58 95.23,-49.75 17.34,1.99 34.97,0.85 52.59,-0.57 46.05,-3.69 91.25,-11.37 136.16,-22.17 55.72,-13.36 108.59,-32.97 154.64,-68.22 11.09,-8.53 21.6,-19.05 30.13,-30.42 8.81,-11.37 2.84,-23.31 -4.55,-33.83 -6.82,-9.66 -17.34,-11.09 -27.57,-7.11 -9.95,3.7 -19.33,8.81 -28.43,14.78 -16.77,11.09 -32.41,24.16 -49.75,34.68 -40.94,24.73 -86.13,38.09 -133.04,46.34 -47.47,8.24 -95.23,11.66 -143.27,5.97 -18.48,-2.28 -23.31,-6.54 -26.44,-25.3 -2.56,-16.2 -2.84,-32.97 -4.83,-49.46 -4.26,-34.68 -8.53,-69.65 -13.08,-104.33 -3.41,-26.44 -6.54,-53.16 -11.09,-79.6 -11.94,-69.36 -36.67,-134.74 -68.51,-197.28 -24.16,-47.19 -50.6,-93.24 -75.9,-140.15 -7.11,-13.08 -13.65,-26.15 -19.33,-37.81 -12.22,2.56 -23.59,5.12 -34.97,7.68 -1.14,0.28 -2.27,0.28 -3.69,0.85 -9.95,2.84 -18.48,16.2 -15.35,25.02 6.25,18.76 14.78,35.82 27,51.45 56.28,72.77 97.5,153.51 125.36,241.06 19.33,60.55 31.55,122.52 36.95,185.63 3.98,46.34 3.7,92.39 -5.97,138.16 -5.12,24.16 -11.37,48.04 -25.01,68.79 -3.41,5.4 -8.24,9.95 -13.65,16.2 -0.28,-2.84 -0.28,-3.41 -0.28,-3.98 19.33,-50.88 17.91,-103.19 9.1,-155.5 -4.83,-28.71 -13.08,-56.85 -19.62,-85.28 -7.68,-33.26 -19.61,-64.81 -35.25,-94.95 -6.25,-11.94 -13.93,-23.59 -22.74,-33.83 -9.95,-11.66 -19.61,-8.81 -25.02,5.69 -3.69,9.66 0.85,18.19 3.98,26.72 5.69,15.07 11.94,29.85 17.06,44.91 5.97,17.34 9.1,35.25 5.69,53.73 -1.14,5.4 -3.41,8.81 -7.96,12.22 -8.24,5.97 -17.06,12.22 -22.74,20.18 -10.8,14.5 -20.18,30.13 -29.56,46.05 -7.96,13.65 -14.5,28.14 -21.89,42.07 -5.12,9.95 -13.08,16.77 -24.16,19.33 -12.51,2.84 -17.63,-1.42 -15.63,-14.5 0.28,-0.85 0.28,-1.99 0.57,-2.84 7.39,-18.76 14.21,-37.81 21.89,-56.28 11.94,-29 24.45,-57.71 35.82,-86.99 3.13,-8.53 3.41,-18.48 3.41,-27.86 0,-7.96 -5.69,-12.51 -13.36,-14.21 -7.39,-1.71 -14.21,0.85 -17.63,8.24 -3.98,8.81 -7.39,17.91 -9.38,27.29 -4.55,19.61 -11.66,38.09 -24.16,54.3 -21.32,27 -49.46,42.64 -82.44,50.03 -55.15,12.79 -110.86,17.91 -167.43,15.63 -17.06,-0.57 -34.11,-2.56 -49.46,-10.8 -15.92,-8.24 -22.46,-21.6 -17.91,-38.66 1.99,-7.96 5.4,-15.92 10.23,-22.17 33.26,-43.21 76.47,-67.66 131.9,-67.94 18.19,0 27.57,-9.66 25.87,-28.14 -1.71,-17.63 -11.09,-24.45 -27.29,-22.74 -31.55,3.13 -62.25,8.53 -91.82,20.18 -37.81,14.78 -69.08,37.81 -91.25,72.2 -23.59,36.67 -19.62,80.16 13.36,106.6 6.25,5.12 13.08,9.38 20.18,13.08 28.14,13.93 58.56,18.19 89.26,19.05 25.87,0.57 51.74,-0.28 77.32,-1.14 34.97,-1.42 69.36,-6.25 102.34,-19.05 1.71,-0.57 3.41,-0.85 5.97,-1.71 -1.14,3.98 -2.27,6.54 -2.84,9.38 -8.53,33.83 -7.11,65.67 16.77,93.52 16.49,19.33 34.4,21.89 55.15,7.39 2.56,-1.71 5.12,-3.69 7.39,-5.97 7.11,-7.39 13.93,-14.78 20.75,-22.46 30.7,43.49 50.31,48.04 104.89,25.87zm-335.16 -326.34c38.94,-1.99 77.89,-5.4 115.98,-17.06 15.63,-4.83 25.87,-12.79 28.71,-29.85 0.85,-5.69 -0.28,-9.38 -4.55,-11.66 -3.41,-1.71 -7.39,-2.84 -11.09,-2.27 -46.05,3.98 -92.1,7.96 -137.87,12.79 -10.52,1.14 -20.75,4.83 -30.42,9.1 -10.23,4.55 -14.78,16.77 -12.22,26.44 1.99,7.39 9.95,12.22 21.89,12.51 9.38,0.28 19.04,0 29.56,0zm561.43 58.28c-1.14,-19.62 -7.68,-36.67 -17.06,-52.31 -4.26,-7.11 -9.95,-14.21 -16.2,-19.33 -10.23,-8.24 -23.31,-6.25 -29.28,5.4 -13.08,24.45 -13.36,50.03 -1.42,75.05 3.98,8.81 11.66,13.36 21.89,12.79 5.12,-0.28 9.95,0 15.06,0 0.57,0.85 0.85,1.42 1.42,2.27 -5.4,8.24 -10.52,16.49 -16.2,25.02 4.55,4.26 9.38,8.81 14.78,13.64 10.52,-10.52 18.19,-21.6 22.46,-35.25 1.42,-4.55 3.7,-5.97 8.24,-5.97 14.5,0.28 29.28,0 43.78,0 10.52,0 17.91,-5.12 23.59,-13.65 6.54,-9.95 7.96,-21.03 4.55,-32.12 -5.12,-16.77 -11.37,-32.97 -17.06,-49.75 -0.28,-1.14 -1.42,-1.99 -2.27,-3.13 -6.25,3.13 -12.51,5.97 -18.48,8.81 0.85,3.13 1.71,5.4 2.27,7.68 4.55,12.79 9.1,25.58 13.36,38.66 3.69,11.09 -1.42,21.6 -10.8,22.17 -14.21,0.57 -28.14,0 -42.64,0zm98.07 -62.54c1.71,2.56 2.84,4.55 4.26,6.54 9.66,13.36 19.61,26.72 28.71,40.65 2.27,3.13 3.13,8.53 1.99,11.94 -0.57,1.99 -6.25,3.41 -9.66,3.69 -8.53,0.57 -17.06,0 -25.58,0.28 -1.99,0 -5.4,2.27 -5.69,3.69 -0.57,5.4 -0.28,11.09 -0.28,17.06 14.5,0 27.86,0 41.22,0 12.22,0 20.18,-6.54 23.31,-18.19 2.56,-10.52 0.85,-20.18 -5.69,-29 -9.95,-13.36 -19.61,-26.72 -29.56,-40.08 -2.27,-3.13 -4.55,-5.97 -7.39,-9.66 -5.4,4.55 -10.23,8.53 -15.64,13.08zm80.16 83.57c4.26,0 7.39,0 10.52,0 9.95,0 10.52,0 10.23,-9.66 -0.57,-19.33 -1.14,-38.94 -3.41,-58.28 -2.56,-23.03 -7.11,-45.77 -11.09,-68.51 -0.28,-1.99 -3.41,-4.83 -5.12,-4.83 -5.69,0.57 -11.37,2.27 -17.63,3.41 11.37,45.48 16.77,90.68 16.49,137.87zm38.66 29.28c3.7,3.13 7.68,6.25 11.66,9.66 2.84,2.56 4.83,1.71 7.11,-0.85 12.79,-15.07 20.47,-32.12 21.6,-52.31 1.71,-30.13 -11.09,-56.28 -21.04,-83.29 0,-0.28 -0.85,-0.28 -1.71,-0.85 -3.98,1.99 -8.24,4.26 -12.79,6.25 -3.7,1.71 -4.26,3.69 -2.84,7.39 4.26,10.8 7.96,21.89 11.94,32.98 6.54,17.63 7.96,35.53 0.57,53.44 -3.7,8.81 -9.1,17.63 -14.5,27.57zm-138.44 9.95c0.28,-5.69 0.28,-11.37 1.14,-16.77 0.85,-5.12 -1.14,-6.82 -5.69,-6.82 -16.2,0 -32.69,-0.28 -48.9,0 -1.71,0 -5.12,2.84 -5.12,4.26 0.28,6.54 1.71,12.79 2.84,19.33 0,0 1.42,0 1.99,0 17.63,0 35.25,0 53.73,0z"/>
 </g>
</svg>
