<?xml version="1.0" encoding="UTF-8"?>
<!DOCTYPE svg PUBLIC "-//W3C//DTD SVG 1.1//EN" "http://www.w3.org/Graphics/SVG/1.1/DTD/svg11.dtd">
<!-- Creator: CorelDRAW 2020 (64-Bit) -->
<svg xmlns="http://www.w3.org/2000/svg" xml:space="preserve" width="3.3887in" height="3.53902in" version="1.1" style="shape-rendering:geometricPrecision; text-rendering:geometricPrecision; image-rendering:optimizeQuality; fill-rule:evenodd; clip-rule:evenodd"
viewBox="0 0 9149.92 9555.79"
 xmlns:xlink="http://www.w3.org/1999/xlink"
 xmlns:xodm="http://www.corel.com/coreldraw/odm/2003">
 <defs>
  <style type="text/css">
   <![CDATA[
    .fil0 {fill:#5F5D5E}
   ]]>
  </style>
 </defs>
 <g id="Layer_x0020_1">
  <metadata id="CorelCorpID_0Corel-Layer"/>
  <g id="radio-talavat.svg">
   <g>
    <path class="fil0" d="M2566.35 2214.29c265.59,-5.42 376.7,8.13 615.18,46.07 119.24,-300.81 295.4,-563.68 490.52,-718.16l699.18 -542c582.66,-417.35 737.13,-65.04 1205.97,268.29 211.39,149.05 485.1,365.86 634.15,582.66 298.11,439.03 249.33,712.73 422.77,818.43 184.28,111.12 777.79,143.63 1257.45,577.24 745.27,672.09 224.93,810.29 -463.41,1262.87l-2230.36 1468.84c-330.63,222.23 -1997.31,1230.35 -2162.61,1506.78 -230.35,382.12 -51.49,647.7 124.66,913.29 -8.13,-306.23 306.23,-430.89 715.45,-696.48 289.98,-189.7 574.53,-373.98 867.21,-571.82l3433.62 -2268.3c287.27,-186.99 680.22,-382.12 764.23,-672.09 102.98,-352.3 -119.24,-902.44 -276.43,-1130.09 -303.52,-436.31 -715.45,-699.18 -1235.78,-880.76 -325.21,-113.83 -271,-29.82 -395.66,-336.05 -308.94,-756.1 -842.82,-1005.42 -1444.45,-1433.61 -856.37,-612.46 -821.14,-528.45 -1845.54,189.71 -317.07,219.51 -585.36,390.24 -799.46,639.57 -121.94,143.63 -189.7,238.48 -281.83,422.76 -138.23,262.88 -168.02,262.88 -94.87,552.85l0 0z"/>
    <path class="fil0" d="M3878.01 6471.77c181.58,-84.01 476.98,-333.33 631.44,-390.24 -46.07,-84.01 8.13,-8.13 -43.36,-59.63l-2444.44 -1623.31c-398.37,-268.29 -395.66,-655.83 -89.43,-848.24 105.7,100.28 116.53,365.86 487.81,265.58 241.19,-62.33 493.23,-636.86 1054.21,-447.15 317.07,108.4 333.33,281.83 420.05,344.17 48.78,-417.34 -181.57,-796.75 -376.69,-981.04 -287.27,-271 -601.63,-325.2 -1092.15,-325.2 -471.54,-1674.8 -1723.58,-579.95 -2195.13,-1471.55 -102.98,-195.13 -70.46,-246.62 -105.69,-341.47 -21.68,-59.63 -5.42,-29.81 -35.23,-67.75 -130.07,466.12 -140.93,682.93 121.95,1051.49 254.75,357.73 490.52,289.98 802.17,523.04 224.93,168.02 411.93,566.4 298.11,978.33 -170.74,626.01 -799.46,1146.34 140.92,1802.16l2425.47 1590.8z"/>
    <path class="fil0" d="M3111.08 9555.79c151.76,-157.18 -40.65,-100.28 346.88,-352.31 718.16,-466.12 5363.16,-3512.2 5509.5,-3663.96 289.98,-306.23 203.25,-823.85 -43.36,-1008.14 -5.42,295.39 -314.36,420.05 -710.04,677.51l-5029.81 3327.94c-498.65,439.01 -105.7,932.25 -73.17,1018.97l0 0z"/>
    <path class="fil0" d="M655.78 4488.01c-246.62,271.01 -327.92,642.28 -75.88,983.74 105.7,146.35 1327.92,934.97 1574.53,1105.7l783.2 523.03c205.96,-111.11 422.77,-303.52 626.03,-406.51 -84.01,-102.98 -1303.53,-905.15 -1517.62,-1051.49 -268.29,-181.58 -501.36,-336.05 -756.1,-512.19 -382.12,-265.58 -626.03,-344.17 -634.16,-642.28l0 0z"/>
   </g>
  </g>
 </g>
</svg>
