<?xml version="1.0" encoding="UTF-8"?>
<!DOCTYPE svg PUBLIC "-//W3C//DTD SVG 1.1//EN" "http://www.w3.org/Graphics/SVG/1.1/DTD/svg11.dtd">
<!-- Creator: CorelDRAW 2020 (64-Bit) -->
<svg xmlns="http://www.w3.org/2000/svg" xml:space="preserve" width="3.41857in" height="3.09228in" version="1.1" style="shape-rendering:geometricPrecision; text-rendering:geometricPrecision; image-rendering:optimizeQuality; fill-rule:evenodd; clip-rule:evenodd"
viewBox="0 0 633.98 573.47"
 xmlns:xlink="http://www.w3.org/1999/xlink"
 xmlns:xodm="http://www.corel.com/coreldraw/odm/2003">
 <defs>
  <style type="text/css">
   <![CDATA[
    .str0 {stroke:#5F5D5E;stroke-width:1.29;stroke-miterlimit:2.61313}
    .fil0 {fill:#5F5D5E;fill-rule:nonzero}
   ]]>
  </style>
 </defs>
 <g id="Layer_x0020_1">
  <metadata id="CorelCorpID_0Corel-Layer"/>
  <g id="radio-tehran.svg">
   <g>
    <g>
     <path class="fil0" d="M612.31 414.89c0.93,-2.78 1.55,-5.41 2.48,-8.2 6.81,-18.1 10.52,-36.97 12.84,-56 1.86,-15.47 2.48,-30.94 1.55,-46.56 -1.39,-29.24 -7.12,-57.7 -17.33,-85.08 -24.6,-65.9 -67.13,-116.94 -127,-153.76 -31.56,-19.49 -65.59,-32.48 -101.94,-39.75 -13.15,-2.63 -26.3,-4.33 -39.6,-5.57 -13.92,-1.24 -27.84,-1.24 -41.77,-0.46 -33.57,1.86 -65.9,8.66 -97.3,20.88 -42.54,16.55 -79.97,40.99 -111.37,73.94 -37.59,39.29 -62.49,85.54 -74.1,138.75 -5.11,23.36 -7.12,47.18 -6.03,71.16 2.63,60.64 22.58,115.09 58.47,163.66 12.99,17.63 28.15,33.1 44.7,47.33 5.88,4.95 11.76,9.75 17.79,14.7 1.08,0.93 2.17,1.7 3.4,2.78 -0.62,0.62 -1.08,0.46 -1.55,0.15 -4.49,-3.25 -9.13,-6.03 -13.61,-9.44 -40.84,-31.25 -72.55,-69.92 -94.2,-116.63 -12.07,-25.83 -20.26,-52.9 -24.44,-81.06 -3.56,-23.05 -4.18,-46.25 -2.17,-69.3 6.81,-76.26 39.29,-139.99 94.98,-191.97 38.52,-36.04 83.84,-60.17 134.73,-73.63 16.71,-4.49 33.72,-7.58 51.05,-9.28 13.77,-1.39 27.69,-1.86 41.77,-1.39 74.09,2.17 140.46,25.99 198,72.86 48.88,40.68 82.76,91.57 100.86,152.99 4.49,15.47 7.58,31.09 9.44,47.03 1.86,15.62 2.48,31.25 1.7,46.87 -1.08,23.98 -4.8,47.49 -11.91,70.38 -2.01,6.34 -4.02,12.99 -6.03,19.34 -0.77,2.01 -1.24,4.02 -3.4,5.26z"/>
     <path class="fil0" d="M534.35 420.93c0.46,-0.77 0.93,-1.39 1.24,-2.32 10.67,-22.74 17.63,-46.41 20.88,-71 2.17,-16.4 2.78,-32.95 1.55,-49.66 -1.7,-24.9 -6.96,-48.88 -15.93,-72.39 -24.44,-62.8 -73.48,-112.77 -135.82,-138.75 -18.25,-7.73 -37.28,-13.15 -56.93,-15.93 -10.21,-1.55 -20.42,-2.78 -30.94,-2.63 -4.64,0.15 -9.13,0 -13.92,-0.77 0.46,1.08 1.24,0.62 1.7,0.46 4.18,-0.62 8.51,-0.93 12.84,-0.93 67.44,0.62 125.76,23.82 175.11,69.76 30.01,28 51.67,61.57 65.12,100.39 4.02,11.76 6.96,23.98 8.97,36.35 2.48,14.85 3.56,29.7 3.56,44.7 -0.15,30.01 -5.57,59.09 -15.62,87.4 -6.34,17.63 -14.7,34.03 -24.6,49.66 -1.39,2.17 -2.63,4.64 -4.8,6.34 3.87,-10.05 6.03,-20.42 6.65,-31.25 0.15,-3.09 0.62,-6.34 0.93,-9.44z"/>
     <path class="fil0" d="M284.83 105.05c0.77,2.78 0.46,5.72 0.15,8.51 -6.65,0.77 -13.46,1.08 -20.26,1.86 -25.68,3.56 -49.81,11.91 -71.93,25.37 -17.94,10.98 -33.26,24.91 -46.25,41.61 -7.27,9.28 -13.92,18.87 -19.95,29.08 -6.03,10.21 -10.52,21.04 -13.61,32.33 -1.55,5.57 -2.48,10.98 -3.56,16.71 -3.09,16.24 -4.49,32.79 -3.56,49.34 0.93,15.47 4.02,30.32 8.97,44.86 4.18,12.84 10.06,24.75 16.86,36.35 0.62,0.93 1.08,1.86 1.55,2.78 -0.93,0 -1.7,-0.15 -2.48,-0.93 -1.08,-1.24 -2.17,-2.32 -3.25,-3.56 -10.36,-13.46 -17.33,-28.46 -20.26,-45.17 -0.93,-4.49 -1.24,-9.13 -1.86,-13.77 -1.24,0.77 -0.62,1.55 -0.62,2.32 0,1.08 0.15,2.17 0.15,3.25 0,0.93 0.15,1.7 0.31,2.63 0.93,4.33 2.01,8.51 2.78,12.99 1.7,9.59 5.41,18.41 9.59,27.07 1.39,2.94 3.25,5.57 4.8,8.35 0.93,1.39 2.01,2.78 2.48,4.64 -1.55,0.93 -2.78,0 -3.87,-0.77 -0.93,-1.7 -1.7,-3.56 -2.63,-5.26 -9.44,-17.17 -16.4,-35.11 -20.26,-54.3 -1.24,-5.57 -1.86,-11.14 -2.48,-16.86 -0.93,-8.35 -1.39,-16.71 -1.24,-25.06 0.31,-6.5 0.93,-13.15 1.39,-19.8 0,-0.77 0.31,-1.39 0.31,-2.17 0.46,-10.52 3.4,-20.26 6.65,-30.01 3.71,-10.67 7.73,-21.5 12.99,-31.56 20.11,-38.52 49.35,-67.13 89.1,-85.08 15.47,-6.96 31.71,-11.6 48.73,-13.77 10.36,-1.55 20.88,-2.32 31.25,-2.01z"/>
     <path class="fil0" d="M451.28 519.46c5.72,1.24 11.45,2.63 17.33,3.09 -0.93,0.93 -1.7,1.7 -2.78,2.48 -28.31,20.42 -59.71,34.65 -93.9,42.23 -15.47,3.56 -31.25,5.26 -47.18,6.03 -10.98,0.46 -22.12,0 -33.1,-1.24 -48.26,-5.72 -90.8,-24.6 -128.39,-55.22 -25.83,-21.19 -47.18,-46.1 -63.27,-75.33 -6.96,-12.68 -12.84,-25.83 -16.86,-39.76 -0.46,-1.55 -0.93,-3.09 -1.24,-4.64 -0.46,-1.24 0.62,-3.09 -0.77,-3.87 -0.62,-0.46 -0.77,0.46 -0.62,0.93 0.62,1.24 1.24,2.17 1.7,3.4 0.77,1.39 1.24,2.94 1.86,4.33 10.52,27.84 25.68,52.75 45.01,75.33 17.94,20.88 39.14,37.9 62.96,51.67 20.42,11.76 42.08,20.73 65.28,26.3 13.15,3.09 26.14,5.1 39.45,6.03 14.08,1.24 28.15,0.93 42.23,-0.46 21.04,-1.86 41.61,-6.65 61.26,-14.08 18.56,-6.81 35.11,-16.24 51.05,-27.22z"/>
     <path class="fil0" d="M302 114.33c-0.15,-2.78 -0.31,-5.57 0.15,-8.35 13.46,1.24 26.76,4.02 39.45,8.51 44.24,15.47 78.89,42.69 103.02,83.07 2.63,4.33 4.8,9.13 7.27,13.61 0.31,0.62 0.93,1.24 0.46,2.01 -0.93,0.31 -1.08,-0.62 -1.24,-1.08 -1.24,-2.01 -2.32,-3.87 -3.56,-6.03 -12.68,-23.2 -30.32,-41.92 -51.67,-57.7 -22.27,-16.4 -47.02,-26.61 -73.94,-31.87 -6.5,-0.77 -13.15,-1.7 -19.96,-2.17z"/>
     <path class="fil0" d="M127.36 399.73c2.78,0.77 5.26,2.17 7.27,4.02 1.86,1.55 3.71,3.25 5.57,4.95 3.71,3.56 7.58,6.96 11.6,10.05 0.77,0.62 1.24,1.24 1.7,1.86 0.46,0.46 0.93,0.93 1.24,1.24 0.46,0.46 0.93,0.15 1.24,0l0 -0c-0.31,1.39 -0.15,1.39 1.24,1.24l0 0c-0.15,0.31 -0.46,0.77 -0.31,0.93 0.77,1.08 1.55,1.86 2.48,2.78 9.28,9.13 19.34,17.33 30.32,24.44 16.55,10.67 34.49,18.72 53.52,23.82 6.03,1.55 12.22,2.63 18.25,3.71 3.56,0.77 6.96,1.24 10.67,1.86 -5.88,0.62 -10.98,0.31 -16.4,-0.46 -7.42,-1.24 -14.85,-2.32 -22.12,-4.02 -40.06,-10.36 -72.7,-32.02 -98.38,-64.2 -2.32,-2.94 -4.49,-6.03 -6.65,-8.97 -0.31,-1.39 -0.77,-2.48 -1.24,-3.25z"/>
     <path class="fil0" d="M468.14 505.23c0.93,-0.31 1.55,-0.77 2.47,-0.93 12.22,-2.63 22.89,-8.04 33.1,-15.31 1.39,-1.08 2.94,-2.01 4.33,-3.09 -1.39,1.7 -2.78,3.56 -4.33,5.41 -7.27,8.04 -15,15.31 -23.05,22.27 -1.24,1.08 -2.78,1.7 -3.25,3.4l0.15 0c-0.77,-0.15 -1.24,0.31 -1.55,0.77 -6.65,0.62 -13.15,-0.15 -19.49,-2.17 3.87,-3.4 7.73,-6.96 11.6,-10.36z"/>
     <path class="fil0" d="M520.27 447.69c0.15,1.39 -0.15,2.78 -0.62,4.18 -3.4,13.46 -10.52,24.75 -20.57,34.19 -6.03,5.72 -13.15,10.21 -20.73,13.61 -1.39,0.62 -2.78,1.55 -4.49,1.24 1.39,-1.39 3.09,-3.09 4.49,-4.49 15.16,-13.92 28.46,-29.24 39.75,-46.41 0.62,-0.77 1.55,-1.7 2.16,-2.32z"/>
    </g>
    <g>
     <path class="fil0 str0" d="M133.39 394.16c0.46,0.31 0.93,0.77 1.24,0.77 8.04,1.24 15.78,2.32 23.98,2.01 12.53,-0.46 24.75,-2.63 36.51,-7.58 2.17,-0.93 4.18,-1.7 6.34,-2.78 14.39,-6.34 26.61,-15.78 36.51,-28.15 6.65,-8.35 10.67,-17.63 12.68,-28 1.24,-7.58 2.17,-15.31 2.17,-22.74 0.15,-11.45 0,-22.74 -0.62,-34.34 -0.31,-5.88 -0.46,-11.76 -0.46,-17.63 0,-15.47 0,-31.09 0,-46.56 0,-2.17 0,-4.18 0.15,-6.34 0.31,-4.49 1.7,-8.66 4.49,-12.37 1.86,-2.48 3.87,-4.95 6.34,-7.27 1.24,1.24 0.93,2.48 0.93,3.56 0.46,22.58 0.93,44.86 1.24,67.44 0.31,17.79 0.46,35.27 -0.15,53.06 -0.62,17.94 -4.95,34.8 -12.84,51.05 -4.18,8.51 -9.59,16.24 -16.55,22.74 -5.41,4.95 -10.67,9.9 -16.24,14.85 -1.39,1.24 -3.25,2.32 -4.95,3.25 -4.64,2.48 -9.44,4.95 -14.23,7.43 -6.96,3.56 -14.23,6.34 -21.97,8.35 -0.93,0.31 -1.7,0.46 -2.63,0.62 -1.24,0.15 -2.17,0 -2.94,-0.93 -4.18,-4.64 -9.75,-6.34 -15.47,-8.2 -4.33,-1.24 -8.97,-2.32 -13.46,-3.09 -0.77,-0.15 -1.39,-0.31 -2.01,0.31 -0.15,1.08 0.62,1.55 1.24,2.17 3.4,3.56 7.43,6.19 11.45,8.66 7.27,4.33 15,7.58 22.74,10.36 6.65,2.32 13.61,4.18 20.57,5.26 4.33,0.62 8.82,1.08 13.3,1.08 17.02,0 33.26,-3.25 48.73,-10.67 5.26,-2.63 10.36,-5.57 15,-9.28 0.93,-0.77 1.7,-1.24 2.63,-1.86 7.89,-5.26 14.39,-11.76 19.8,-19.34 10.67,-15 17.94,-31.56 21.5,-49.66 1.24,-5.88 1.24,-11.6 1.55,-17.63 0.31,-4.8 0.62,-9.59 1.24,-14.39 0.77,-4.8 1.55,-9.44 3.87,-13.77 1.24,-2.17 0.93,-4.02 -0.77,-6.03 -0.93,-0.93 -1.39,-2.01 -2.32,-2.94 -1.7,-1.7 -2.32,-3.87 -2.63,-6.19 -0.31,-3.56 0.31,-7.12 0.77,-10.67 0.31,-1.7 0.77,-3.56 1.08,-5.11 0.77,-0.46 1.39,-0.31 2.01,0.31 2.48,2.32 4.95,4.64 7.42,6.81 1.39,1.24 3.09,2.48 4.64,3.56 1.08,0.77 1.86,0.62 2.94,-0.15 1.39,-1.24 2.94,-2.78 4.33,-3.87 8.04,-6.03 16.86,-10.67 26.92,-12.68 5.72,-1.24 11.29,-1.24 16.86,0.62 0.31,0.15 0.77,0.15 1.08,0.31 7.27,2.78 11.14,8.04 11.45,15.78 0.15,4.33 -0.77,8.51 -2.32,12.53 -1.24,3.4 -3.25,6.34 -5.11,9.28 -1.08,1.55 -2.17,3.25 -2.78,5.41 2.63,0.93 5.1,1.55 7.58,2.32 2.63,0.77 5.11,1.55 7.73,2.32 0.77,0.15 1.39,0.31 2.17,0.31 5.72,0 11.29,1.08 17.02,1.7 4.02,0.62 8.2,0.77 12.22,1.24 5.1,0.77 8.35,-1.39 11.14,-5.72 3.56,-5.72 5.57,-11.91 6.34,-18.56 0.77,-6.03 1.08,-12.07 0.93,-18.1 -0.15,-2.78 0.46,-5.26 1.24,-7.89 2.63,-7.27 4.95,-14.54 7.42,-21.81 1.24,-3.56 2.32,-7.12 4.18,-10.52 0.62,-1.08 1.08,-2.32 2.32,-2.63 1.24,0.46 0.77,1.39 0.77,2.17 -0.15,8.66 -0.31,17.48 -0.62,26.14 -0.31,7.12 -0.46,14.23 -1.24,21.35 -0.62,5.1 -1.24,10.36 -2.48,15.31 -1.55,6.5 -4.18,12.53 -9.59,16.86 -0.62,0.46 -1.08,1.08 -1.39,1.55 -0.31,0.46 -0.31,1.08 -0.31,1.39 0,0.62 0.62,0.93 1.24,0.93 1.55,0 3.25,0 4.8,0 7.89,0 15.62,0 23.51,-0.15 1.39,0 2.94,0 4.18,0.15 2.63,0.46 4.49,2.48 4.64,5.1 0.15,1.7 -0.15,3.56 -1.08,5.26 -2.48,4.49 -5.11,8.97 -7.58,13.46 -0.15,0.31 -0.62,0.46 -1.24,0.93 -3.56,-0.15 -7.12,-0.31 -10.83,-0.62 -5.41,-0.46 -10.67,0.15 -15.93,0.46 -1.24,0.15 -2.01,0.77 -2.01,1.86 0,13.92 -0.93,27.84 1.24,41.77 0.62,3.56 1.39,6.96 3.09,10.21 1.39,2.94 3.56,4.8 6.81,5.57 1.24,0.31 2.48,0.31 3.56,0.15 1.08,-0.15 2.01,-0.15 3.25,-0.15 0.15,0 0.31,0.15 0.62,0.46 -2.48,2.01 -5.41,1.55 -8.2,1.7 -2.94,0.15 -5.72,-0.46 -8.35,-1.86 -2.63,-1.24 -4.64,-3.25 -6.34,-5.57 -1.7,-2.17 -2.63,-4.95 -3.71,-7.89 -2.01,2.32 -3.87,4.18 -6.03,5.72 0,1.08 -0.15,1.86 0,2.78 2.01,17.33 -2.48,32.79 -11.45,47.33 -5.26,8.2 -11.14,15.47 -19.18,21.35 -2.01,1.39 -3.87,3.09 -5.88,4.64 -0.93,0.77 -2.01,1.39 -2.63,3.09 0.46,1.08 0.77,2.32 1.24,3.56 2.32,5.41 5.41,10.52 8.35,15.47 1.55,2.63 3.71,3.56 6.81,3.25 2.78,-0.46 5.72,-0.62 8.35,-1.24 28.93,-5.72 50.43,-21.5 64.51,-47.33 3.71,-6.96 6.03,-14.39 8.35,-21.97 0.46,-1.7 0.77,-3.56 0.77,-5.26 0.15,-4.18 -1.86,-6.19 -6.03,-6.65 -2.32,-0.31 -4.64,-0.31 -6.96,0.31 -2.01,0.46 -4.18,1.08 -6.19,1.39 -1.08,0.15 -2.01,0.62 -3.4,-0.31 -0.46,-4.18 -0.31,-8.51 0,-13.15 4.18,-2.17 8.51,-2.94 13.15,-2.63 4.18,0.31 7.42,2.48 9.28,6.19 1.7,3.4 2.48,6.96 2.78,10.67 2.17,21.04 -3.56,39.91 -16.24,56.62 -13.46,17.94 -31.09,30.78 -52.75,37.44 -0.77,0.31 -1.7,0 -2.17,1.08 0.15,0.31 0.15,0.93 0.31,1.08 3.87,2.78 8.2,5.1 12.68,6.81 4.02,1.7 8.35,3.4 12.84,3.71 6.34,2.01 12.84,2.78 19.49,2.17 0.62,0 1.24,0.31 1.55,-0.77l-0.15 0c0.77,0.15 1.24,0.62 2.01,0.62 9.28,-0.46 18.41,-2.17 27.07,-6.03 16.4,-7.58 29.24,-18.87 37.9,-34.81 6.03,-10.83 8.82,-22.58 9.13,-34.8 0.15,-3.4 0,-6.81 0,-10.21 1.24,0.15 1.55,1.08 1.7,1.86 1.24,4.95 2.32,10.05 2.48,15.31 1.24,21.81 -7.12,39.91 -21.04,56 -7.27,8.35 -15.78,14.85 -25.52,20.11 -0.62,0.31 -1.24,0.62 -1.86,1.08 -3.25,1.7 -6.34,2.17 -9.59,0 -1.7,-1.24 -3.87,-1.55 -6.03,-1.86 -1.24,-0.15 -2.48,-0.46 -3.71,-0.46 -6.19,-0.46 -12.53,-0.77 -18.72,-1.24 -0.93,0 -1.7,0.15 -2.63,0.15 -5.88,-0.62 -11.6,-1.86 -17.33,-3.09 -1.24,-0.62 -2.17,-1.24 -3.4,-1.55 -8.66,-3.4 -16.86,-7.58 -23.82,-13.92 -4.02,-3.71 -8.66,-6.03 -13.92,-7.42 -5.88,-1.39 -11.76,-2.94 -17.79,-4.02 -15.16,-3.09 -28.77,-9.13 -40.84,-18.72 -2.94,-2.32 -5.88,-4.64 -8.66,-6.96 -1.24,-1.08 -2.63,-1.7 -4.18,-2.17 -21.66,-5.1 -37.59,-17.94 -49.04,-36.66 -0.93,-1.24 -1.7,-2.63 -2.63,-4.02 -0.15,-0.15 -0.31,-0.15 -0.46,-0.31 -1.24,0.31 -2.01,1.24 -3.09,2.17 -7.27,6.34 -15.78,10.83 -24.13,15.62 -3.71,2.17 -7.73,2.32 -11.76,0.62 -2.17,-0.93 -4.33,-1.7 -6.5,-2.32 -4.64,-1.39 -9.44,-1.39 -14.23,-1.86 -6.34,-0.62 -12.84,-0.93 -19.18,-1.24 -16.55,-0.77 -32.18,-5.1 -46.87,-13.15 -1.08,-0.62 -1.86,-1.7 -3.4,-0.93l0 0c0.46,-1.24 -0.46,-1.24 -1.24,-1.24l0.16 -0c-0.46,-1.24 -1.39,-1.55 -2.63,-1.24 -0.62,-0.62 -1.24,-1.24 -1.7,-1.86 -4.02,-3.09 -7.89,-6.5 -11.6,-10.05 -1.7,-1.7 -3.56,-3.4 -5.57,-4.95 -2.17,-1.86 -4.49,-3.4 -7.27,-4.02 -2.17,-1.24 -4.64,-1.86 -6.96,-2.63 -25.37,-8.04 -44.4,-24.13 -57.85,-47.03 -6.81,-11.6 -10.83,-24.29 -13.15,-37.59 -0.31,-1.7 -0.31,-3.56 -0.46,-5.26 1.24,-0.31 1.24,0.77 1.24,1.24 1.86,12.68 6.34,24.44 12.84,35.42 12.99,22.27 31.56,37.74 55.84,46.56 0.77,0.31 1.24,0.31 2.01,0.46 1.24,0.77 2.32,1.55 3.87,0.77 -0.31,-1.86 -1.55,-3.09 -2.48,-4.64 -1.55,-2.78 -3.4,-5.41 -4.8,-8.35 -4.18,-8.51 -7.89,-17.48 -9.59,-27.07 -0.93,-4.33 -1.86,-8.66 -2.78,-12.99 -0.15,-0.93 -0.15,-1.7 -0.31,-2.63 -0.15,-1.08 -0.15,-2.17 -0.15,-3.25 0,-0.77 -0.62,-1.55 0.62,-2.32 0.62,4.8 1.24,9.28 1.86,13.77 3.09,16.71 10.05,31.87 20.26,45.17 1.08,1.24 2.01,2.47 3.25,3.56 1.08,2.17 2.01,2.48 2.94,2.48zm185.93 17.33c0.31,0.15 0.46,0.31 0.46,0.46 0.46,2.01 0.93,4.18 1.24,6.19 3.09,13.15 8.66,25.21 16.86,36.04 1.39,1.86 3.09,3.56 4.64,5.1 1.24,1.24 2.63,1.86 4.18,2.01 4.18,0.62 8.35,1.24 12.84,0.62 1.86,-0.31 3.87,-0.31 5.88,-0.31 4.33,0 8.51,-0.77 12.68,-2.01 27.84,-8.97 46.56,-27.22 55.22,-55.53 0.62,-1.86 1.08,-3.71 1.24,-5.88 0.62,-5.26 -1.24,-6.65 -6.5,-5.88 -1.86,0.31 -3.87,0.62 -5.88,0.62 -4.33,-0.15 -8.51,-4.18 -8.97,-8.35 -0.77,-6.34 1.7,-11.45 6.34,-15.62 3.25,-2.78 7.73,-2.63 10.67,0.46 1.24,1.24 2.17,2.78 3.09,4.33 1.08,1.7 1.55,3.56 2.48,5.41 0.46,0.93 0.77,2.01 1.86,2.48 0.77,0.31 1.86,-0.77 2.63,-2.32 0.62,-1.39 1.24,-2.94 1.55,-4.49 0.62,-2.94 1.08,-6.03 1.24,-8.97 0.15,-8.35 0,-16.71 0,-25.06 0,-0.93 0.15,-1.7 -0.77,-2.32 -1.24,-0.46 -2.17,-0.15 -3.25,0.31 -8.35,2.63 -16.86,4.33 -25.06,7.27 -4.18,1.39 -8.35,2.78 -12.84,3.87 -2.17,0.62 -4.49,1.24 -6.81,1.39 -4.02,0.62 -8.2,0.77 -12.22,1.24 -2.94,0.46 -6.03,0.62 -8.66,1.39 -0.31,2.17 0.46,3.71 0.77,5.57 0.31,1.86 1.39,3.4 0.77,5.72 -0.77,-1.24 -1.24,-1.86 -1.55,-2.63 -1.08,-1.86 -1.86,-3.71 -2.78,-5.88 -0.93,-1.86 -2.01,-3.09 -4.33,-3.56 -2.78,-0.46 -5.57,-1.24 -8.35,-2.01 -6.34,-1.7 -12.38,-4.18 -17.63,-8.66 -4.33,-3.87 -9.13,-7.42 -13.61,-11.14 -0.77,-0.62 -1.24,-1.24 -2.48,-0.93 0.15,1.7 0.31,3.56 0.46,5.26 0.15,2.17 0.46,4.18 0.46,6.34 0,15 -3.4,29.39 -9.9,42.85 -5.88,12.37 -13.77,23.2 -23.2,33.1 -1.24,1.24 -2.78,2.17 -3.56,4.18 0.31,0.62 0.46,1.24 0.77,1.7 7.58,12.22 17.33,22.12 29.85,29.08 4.79,2.63 10.05,4.64 15.47,6.03 0.77,0.15 1.7,0.62 2.48,-0.77 -1.24,-2.17 -2.78,-4.33 -4.18,-6.5 -6.03,-8.82 -9.9,-18.56 -12.22,-28.93 -0.77,-3.56 -1.86,-7.27 -1.39,-11.29zm20.57 -133.96c0.15,1.08 0.93,1.39 1.55,2.01 2.01,1.39 4.02,2.94 6.19,4.18 7.73,4.49 15.47,8.51 23.82,12.07 10.67,4.49 7.42,4.8 12.68,-4.49 2.32,-4.18 2.94,-8.66 2.32,-13.46 -0.77,-5.72 -4.02,-9.59 -9.59,-10.83 -3.56,-0.93 -7.42,-1.24 -11.14,-0.77 -8.66,1.24 -16.4,4.49 -23.67,8.97 -0.93,0.62 -2.01,0.93 -2.17,2.32zm29.39 38.05c-1.08,-0.46 -1.39,-0.77 -1.86,-0.93 -12.68,-4.64 -24.44,-10.67 -34.8,-19.18 -0.93,-0.77 -1.7,-1.24 -2.63,-1.86 -0.77,-0.62 -2.01,0 -2.01,0.93 -0.62,4.8 -0.77,9.59 0.46,14.23 3.56,14.85 17.94,26.61 36.04,27.07 1.08,0 1.7,-0.62 1.86,-1.55 0.93,-6.03 1.86,-12.22 2.94,-18.72zm-17.94 151.9c3.71,3.71 7.89,6.5 12.68,8.35 3.71,1.39 7.73,2.94 11.6,4.18 10.05,3.4 20.26,5.72 30.47,8.04 0.93,0.15 2.01,0.93 2.94,-0.46 -1.55,-4.95 -7.89,-17.63 -10.21,-21.04 -1.24,0 -1.86,0.93 -2.94,1.24 -1.7,0.93 -3.56,1.7 -5.41,2.48 -2.48,0.93 -4.8,1.08 -7.27,-0.15 -2.17,-1.08 -4.33,-1.55 -6.65,-1.86 -8.2,-1.24 -16.24,-1.86 -24.6,-1.55 -0,0.15 -0.16,0.31 -0.62,0.77zm62.34 -140.61c-0.31,-0.15 -0.46,-0.62 -0.77,-0.62 -1.24,-0.31 -2.48,-0.62 -3.56,-0.93 -9.28,-1.7 -18.56,-3.4 -27.53,-6.34 -0.46,-0.15 -1.08,-0.31 -1.55,-0.31 -2.63,-0.62 -4.02,0 -5.41,2.17 -2.32,3.71 -3.4,7.89 -3.4,12.22 0,0.93 -0.15,1.7 0.93,2.32 14.54,1.55 34.03,-2.48 41.3,-8.51z"/>
     <path class="fil0" d="M302 114.33c0,2.48 -0.15,4.95 -0.15,7.43 0.31,28.15 0.77,56.31 0.77,84.61 0.15,25.83 0,51.67 -0.15,77.5 -0.15,11.6 -0.46,23.05 -1.7,34.65 -1.08,9.13 -2.78,18.25 -5.72,27.22 -5.11,15.47 -13.77,28.77 -25.68,39.91 -7.42,6.96 -15.47,13.15 -24.29,18.41 -1.55,1.08 -3.4,1.86 -5.26,2.78 -5.26,2.32 -10.52,4.49 -15.62,6.81 -6.19,2.78 -12.84,4.33 -19.49,5.72 -4.02,0.93 -8.04,1.39 -12.07,2.01 -1.55,0.31 -3.09,0.46 -4.79,-0.15 4.49,-0.93 8.82,-1.55 13.15,-2.63 8.35,-2.01 16.09,-5.26 23.67,-9.44 5.41,-2.94 10.52,-6.03 15.47,-9.59 20.88,-14.7 34.34,-34.5 40.37,-59.09 2.32,-9.59 3.56,-19.18 4.33,-29.08 1.39,-19.18 1.08,-38.52 0.77,-57.7 -0.46,-38.52 -0.46,-77.03 -0.46,-115.55 0,-6.34 0.15,-12.84 0.15,-19.34 0,-1.7 -0.15,-3.56 -0.31,-5.41 0.31,-2.94 0.62,-5.72 -0.15,-8.51 0.15,-1.08 0.46,-2.01 0.46,-3.25 0,-5.88 -0.15,-11.76 -0.31,-17.63 -0.15,-4.64 -0.31,-9.28 0.62,-13.77 0.46,-2.17 1.24,-4.02 2.32,-5.88 3.56,-4.8 6.96,-9.44 10.52,-14.08 0.46,-0.77 1.08,-1.39 2.17,-1.24 0.77,1.39 0.46,3.09 0.46,4.64 0.15,15.62 0.46,31.25 0.62,46.87 0,1.7 0.15,3.56 0.31,5.26 -0.31,3.09 -0.15,5.72 0,8.51z"/>
     <path class="fil0" d="M534.35 420.93c-0.31,3.25 -0.77,6.34 -0.93,9.59 -0.46,10.67 -2.78,21.19 -6.65,31.25 -1.08,1.7 -1.86,3.4 -2.94,5.1 -3.25,5.88 -7.27,10.83 -12.07,15.47 -1.24,1.24 -2.48,2.48 -3.71,3.71 -1.39,1.08 -2.94,2.01 -4.33,3.09 -10.05,7.12 -20.88,12.53 -33.1,15.31 -0.93,0.15 -1.55,0.62 -2.48,0.93 -2.94,-0.46 -5.88,0.46 -8.66,-0.31 4.95,-1.24 10.05,-1.55 14.39,-4.02 1.7,0.31 3.09,-0.62 4.49,-1.24 7.58,-3.56 14.54,-8.04 20.73,-13.61 10.21,-9.44 17.17,-20.57 20.57,-34.19 0.31,-1.39 0.62,-2.78 0.62,-4.18 1.55,-4.64 2.01,-9.44 2.01,-14.23 0.31,-10.21 0.46,-20.26 0.31,-30.47 0,-25.68 -0.15,-51.36 -0.31,-77.03 0,-13.92 0.15,-27.84 -0.15,-41.77 -0.15,-6.81 1.86,-12.68 6.5,-17.63 1.08,-1.24 1.7,-2.63 3.4,-3.25 1.24,0.46 0.77,1.24 0.77,1.86 0.15,11.45 0.15,22.74 0.31,34.34 0.62,38.67 0.93,77.5 0.77,116.02 0.15,1.7 0.31,3.56 0.46,5.26z"/>
     <path class="fil0" d="M404.41 225.09c-1.24,1.24 -2.48,2.17 -3.56,3.4 -1.86,1.7 -4.02,2.94 -6.34,3.71 -8.66,3.4 -20.73,-2.63 -22.74,-13.3 -0.77,-3.71 -0.62,-7.43 0.93,-10.98 2.01,-5.1 5.72,-8.51 10.98,-10.05 6.81,-1.7 13.15,-1.24 18.1,4.18 0.31,0.46 0.77,0.77 1.24,1.24 1.86,1.7 2.32,1.7 3.87,0.15 1.24,-1.08 2.32,-2.17 3.56,-3.25 9.9,-7.58 22.89,-1.86 26.76,7.42 3.56,8.51 0.31,18.87 -7.73,23.05 -7.12,3.71 -16.24,2.63 -21.19,-2.78 -1.08,-0.93 -2.01,-2.01 -3.87,-2.78z"/>
     <path class="fil0" d="M174.85 290.83c0.15,10.67 -7.12,18.87 -18.56,20.57 -10.83,1.7 -17.63,-4.18 -21.04,-11.14 -2.63,-5.1 -3.4,-10.52 -1.86,-16.09 2.17,-8.2 7.89,-12.37 15.62,-14.23 0.77,-0.15 1.39,-0.15 2.17,-0.31 15.31,-2.16 23.98,10.06 23.67,21.19z"/>
     <path class="fil0" d="M459.48 432.99c1.08,1.24 1.86,2.32 2.63,3.25 2.94,3.56 2.17,9.74 0,12.53 -3.09,3.87 -8.35,5.41 -12.99,3.56 -4.33,-1.7 -7.12,-5.88 -6.96,-10.52 0,-1.86 0.77,-3.56 1.7,-4.95 0.93,-1.24 1.86,-2.63 2.78,-3.56 -0.15,-1.55 -1.24,-2.17 -2.01,-3.25 -2.63,-3.56 -3.25,-7.12 -1.24,-10.98 1.86,-3.87 5.1,-5.88 9.28,-6.03 4.18,-0.31 7.73,1.24 10.05,4.8 2.32,3.56 2.48,7.42 0,10.98 -1.24,1.39 -2.01,2.47 -3.25,4.18z"/>
    </g>
   </g>
  </g>
 </g>
</svg>
