<?xml version="1.0" encoding="UTF-8"?>
<!DOCTYPE svg PUBLIC "-//W3C//DTD SVG 1.1//EN" "http://www.w3.org/Graphics/SVG/1.1/DTD/svg11.dtd">
<!-- Creator: CorelDRAW 2020 (64-Bit) -->
<svg xmlns="http://www.w3.org/2000/svg" xml:space="preserve" width="2.78583in" height="1.74562in" version="1.1" style="shape-rendering:geometricPrecision; text-rendering:geometricPrecision; image-rendering:optimizeQuality; fill-rule:evenodd; clip-rule:evenodd"
viewBox="0 0 504.8 316.31"
 xmlns:xlink="http://www.w3.org/1999/xlink"
 xmlns:xodm="http://www.corel.com/coreldraw/odm/2003">
 <defs>
  <style type="text/css">
   <![CDATA[
    .fil0 {fill:#5F5D5E;fill-rule:nonzero}
   ]]>
  </style>
 </defs>
 <g id="Layer_x0020_1">
  <metadata id="CorelCorpID_0Corel-Layer"/>
  <g id="radio-Varzesh.svg">
   <g>
    <path class="fil0" d="M83.99 67.29c241.79,-13.74 78.07,128.06 -83.99,249.02 189.19,-191.33 144.65,-244.16 83.99,-249.02l0 0z"/>
    <path class="fil0" d="M158.51 67.29c241.79,-13.74 78.07,128.06 -83.76,249.02 189.19,-191.33 144.41,-244.16 83.76,-249.02l0 0z"/>
    <path class="fil0" d="M233.14 67.29c241.79,-13.74 78.07,128.06 -83.99,249.02 189.31,-191.33 144.65,-244.16 83.99,-249.02l0 0z"/>
    <path class="fil0" d="M307.66 67.29c241.79,-13.74 78.07,128.06 -83.99,249.02 189.43,-191.33 144.65,-244.16 83.99,-249.02l0 0z"/>
    <path class="fil0" d="M382.3 67.29c241.79,-13.74 78.07,128.06 -83.76,249.02 189.08,-191.33 144.41,-244.16 83.76,-249.02l0 0z"/>
    <path class="fil0" d="M469.13 64.33c17.77,0 32.22,-14.45 32.22,-32.1 0,-17.77 -14.45,-32.22 -32.22,-32.22 -17.65,0 -32.1,14.45 -32.1,32.22 0,17.65 14.45,32.1 32.1,32.1l0 0z"/>
   </g>
  </g>
 </g>
</svg>
